<mxfile host="31ca22d3-adce-416c-b96a-58569275ac01" modified="2020-08-09T23:13:13.733Z" agent="5.0 (Windows NT 10.0; Win64; x64) AppleWebKit/537.36 (KHTML, like Gecko) Code/1.47.3 Chrome/78.0.3904.130 Electron/7.3.2 Safari/537.36" etag="OOb-eXL2V7tgBmV8veXy" version="13.1.3" pages="6">
    <diagram id="6hGFLwfOUW9BJ-s0fimq" name="no_child">
        <mxGraphModel dx="1770" dy="1010" grid="1" gridSize="10" guides="1" tooltips="1" connect="1" arrows="1" fold="1" page="1" pageScale="1" pageWidth="827" pageHeight="1169" math="0" shadow="0">
            <root>
                <mxCell id="0"/>
                <mxCell id="1" parent="0"/>
                <mxCell id="Mpc4OqFYPx4ej4oT6UIc-38" value="" style="rounded=0;whiteSpace=wrap;html=1;fillColor=#FFFFFF;strokeColor=none;" parent="1" vertex="1">
                    <mxGeometry x="60" y="100" width="520" height="470" as="geometry"/>
                </mxCell>
                <mxCell id="2" value="&lt;font color=&quot;#000000&quot;&gt;parent&lt;/font&gt;" style="ellipse;whiteSpace=wrap;html=1;aspect=fixed;strokeColor=#006EAF;strokeWidth=2;fillColor=#1ba1e2;fontColor=#ffffff;" parent="1" vertex="1">
                    <mxGeometry x="240" y="160" width="40" height="40" as="geometry"/>
                </mxCell>
                <mxCell id="3" value="&lt;font color=&quot;#000000&quot;&gt;deleting&lt;/font&gt;" style="ellipse;whiteSpace=wrap;html=1;aspect=fixed;strokeColor=#FFB366;strokeWidth=2;fillColor=#1ba1e2;fontColor=#ffffff;" parent="1" vertex="1">
                    <mxGeometry x="180" y="220" width="40" height="40" as="geometry"/>
                </mxCell>
                <mxCell id="4" value="" style="endArrow=none;html=1;strokeColor=#000000;strokeWidth=2;exitX=0;exitY=1;exitDx=0;exitDy=0;entryX=1;entryY=0;entryDx=0;entryDy=0;" parent="1" source="2" target="3" edge="1">
                    <mxGeometry width="50" height="50" relative="1" as="geometry">
                        <mxPoint x="205.85786437626894" y="214.14213562373106" as="sourcePoint"/>
                        <mxPoint x="174.14213562373106" y="245.85786437626894" as="targetPoint"/>
                    </mxGeometry>
                </mxCell>
                <mxCell id="5" value="" style="endArrow=classic;html=1;curved=1;strokeColor=#97D077;strokeWidth=2;dashed=1;exitX=0.783;exitY=1.042;exitDx=0;exitDy=0;entryX=0.5;entryY=1;entryDx=0;entryDy=0;edgeStyle=orthogonalEdgeStyle;exitPerimeter=0;" parent="1" source="3" target="2" edge="1">
                    <mxGeometry width="50" height="50" relative="1" as="geometry">
                        <mxPoint x="174.14213562373106" y="274.14213562373106" as="sourcePoint"/>
                        <mxPoint x="220" y="220" as="targetPoint"/>
                    </mxGeometry>
                </mxCell>
                <mxCell id="6" value="" style="endArrow=none;html=1;strokeColor=#000000;strokeWidth=2;entryX=0;entryY=1;entryDx=0;entryDy=0;exitX=1;exitY=0;exitDx=0;exitDy=0;" parent="1" source="7" target="3" edge="1">
                    <mxGeometry width="50" height="50" relative="1" as="geometry">
                        <mxPoint x="160" y="280" as="sourcePoint"/>
                        <mxPoint x="224.14213562373106" y="235.85786437626894" as="targetPoint"/>
                    </mxGeometry>
                </mxCell>
                <mxCell id="7" value="&lt;font color=&quot;#000000&quot;&gt;None&lt;/font&gt;" style="ellipse;whiteSpace=wrap;html=1;aspect=fixed;strokeColor=#006EAF;strokeWidth=2;fillColor=none;fontColor=#ffffff;dashed=1;" parent="1" vertex="1">
                    <mxGeometry x="120" y="280" width="40" height="40" as="geometry"/>
                </mxCell>
                <mxCell id="8" value="" style="html=1;shadow=0;dashed=0;align=center;verticalAlign=middle;shape=mxgraph.arrows2.arrow;dy=0.45;dx=30.5;notch=0;strokeColor=none;fillColor=#FF9933;" parent="1" vertex="1">
                    <mxGeometry x="300" y="220" width="50" height="40" as="geometry"/>
                </mxCell>
                <mxCell id="9" value="&lt;font color=&quot;#000000&quot;&gt;parent&lt;/font&gt;" style="ellipse;whiteSpace=wrap;html=1;aspect=fixed;strokeColor=#006EAF;strokeWidth=2;fillColor=#1ba1e2;fontColor=#ffffff;" parent="1" vertex="1">
                    <mxGeometry x="440" y="160" width="40" height="40" as="geometry"/>
                </mxCell>
                <mxCell id="13" value="" style="endArrow=none;html=1;strokeColor=#000000;strokeWidth=2;entryX=0;entryY=1;entryDx=0;entryDy=0;exitX=1;exitY=0;exitDx=0;exitDy=0;" parent="1" source="14" target="9" edge="1">
                    <mxGeometry width="50" height="50" relative="1" as="geometry">
                        <mxPoint x="400" y="290" as="sourcePoint"/>
                        <mxPoint x="425.85786437626894" y="264.14213562373106" as="targetPoint"/>
                    </mxGeometry>
                </mxCell>
                <mxCell id="14" value="&lt;font color=&quot;#000000&quot;&gt;None&lt;/font&gt;" style="ellipse;whiteSpace=wrap;html=1;aspect=fixed;strokeColor=#006EAF;strokeWidth=2;fillColor=none;fontColor=#ffffff;dashed=1;" parent="1" vertex="1">
                    <mxGeometry x="380" y="220" width="40" height="40" as="geometry"/>
                </mxCell>
                <mxCell id="15" value="&lt;font color=&quot;#000000&quot;&gt;parent&lt;/font&gt;" style="ellipse;whiteSpace=wrap;html=1;aspect=fixed;strokeColor=#006EAF;strokeWidth=2;fillColor=#1ba1e2;fontColor=#ffffff;" parent="1" vertex="1">
                    <mxGeometry x="80" y="390" width="40" height="40" as="geometry"/>
                </mxCell>
                <mxCell id="16" value="&lt;font color=&quot;#000000&quot;&gt;deleting&lt;/font&gt;" style="ellipse;whiteSpace=wrap;html=1;aspect=fixed;strokeColor=#FFB366;strokeWidth=2;fillColor=#1ba1e2;fontColor=#ffffff;" parent="1" vertex="1">
                    <mxGeometry x="140" y="450" width="40" height="40" as="geometry"/>
                </mxCell>
                <mxCell id="17" value="" style="endArrow=none;html=1;strokeColor=#000000;strokeWidth=2;exitX=1;exitY=1;exitDx=0;exitDy=0;entryX=0;entryY=0;entryDx=0;entryDy=0;" parent="1" source="15" target="16" edge="1">
                    <mxGeometry width="50" height="50" relative="1" as="geometry">
                        <mxPoint x="45.857864376268935" y="444.14213562373106" as="sourcePoint"/>
                        <mxPoint x="14.142135623731065" y="475.85786437626894" as="targetPoint"/>
                    </mxGeometry>
                </mxCell>
                <mxCell id="19" value="" style="endArrow=none;html=1;strokeColor=#000000;strokeWidth=2;entryX=0;entryY=1;entryDx=0;entryDy=0;exitX=1;exitY=0;exitDx=0;exitDy=0;" parent="1" source="20" target="16" edge="1">
                    <mxGeometry width="50" height="50" relative="1" as="geometry">
                        <mxPoint y="510" as="sourcePoint"/>
                        <mxPoint x="64.14213562373106" y="465.85786437626894" as="targetPoint"/>
                    </mxGeometry>
                </mxCell>
                <mxCell id="20" value="&lt;font color=&quot;#000000&quot;&gt;None&lt;/font&gt;" style="ellipse;whiteSpace=wrap;html=1;aspect=fixed;strokeColor=#006EAF;strokeWidth=2;fillColor=none;fontColor=#ffffff;dashed=1;" parent="1" vertex="1">
                    <mxGeometry x="80" y="510" width="40" height="40" as="geometry"/>
                </mxCell>
                <mxCell id="21" value="" style="endArrow=classic;html=1;curved=1;strokeColor=#97D077;strokeWidth=2;dashed=1;entryX=0.5;entryY=1;entryDx=0;entryDy=0;edgeStyle=orthogonalEdgeStyle;exitX=1;exitY=1;exitDx=0;exitDy=0;" parent="1" source="16" target="22" edge="1">
                    <mxGeometry width="50" height="50" relative="1" as="geometry">
                        <mxPoint x="190" y="560" as="sourcePoint"/>
                        <mxPoint x="238.68" y="448.3" as="targetPoint"/>
                        <Array as="points">
                            <mxPoint x="174" y="520"/>
                            <mxPoint x="260" y="520"/>
                        </Array>
                    </mxGeometry>
                </mxCell>
                <mxCell id="22" value="&lt;font color=&quot;#000000&quot;&gt;successor&lt;/font&gt;" style="ellipse;whiteSpace=wrap;html=1;aspect=fixed;strokeColor=#006EAF;strokeWidth=2;fillColor=#1ba1e2;fontColor=#ffffff;" parent="1" vertex="1">
                    <mxGeometry x="240" y="410" width="40" height="40" as="geometry"/>
                </mxCell>
                <mxCell id="23" value="" style="html=1;shadow=0;dashed=0;align=center;verticalAlign=middle;shape=mxgraph.arrows2.arrow;dy=0.45;dx=30.5;notch=0;strokeColor=none;fillColor=#FF9933;" parent="1" vertex="1">
                    <mxGeometry x="300" y="450" width="50" height="40" as="geometry"/>
                </mxCell>
                <mxCell id="24" value="&lt;font color=&quot;#000000&quot;&gt;parent&lt;/font&gt;" style="ellipse;whiteSpace=wrap;html=1;aspect=fixed;strokeColor=#006EAF;strokeWidth=2;fillColor=#1ba1e2;fontColor=#ffffff;" parent="1" vertex="1">
                    <mxGeometry x="360" y="390" width="40" height="40" as="geometry"/>
                </mxCell>
                <mxCell id="30" value="&lt;font color=&quot;#000000&quot;&gt;successor&lt;/font&gt;" style="ellipse;whiteSpace=wrap;html=1;aspect=fixed;strokeColor=#006EAF;strokeWidth=2;fillColor=#1ba1e2;fontColor=#ffffff;" parent="1" vertex="1">
                    <mxGeometry x="520" y="410" width="40" height="40" as="geometry"/>
                </mxCell>
                <mxCell id="31" value="" style="endArrow=classic;html=1;curved=1;strokeColor=#97D077;strokeWidth=2;dashed=1;exitX=1;exitY=1;exitDx=0;exitDy=0;entryX=0.5;entryY=1;entryDx=0;entryDy=0;edgeStyle=orthogonalEdgeStyle;" parent="1" source="24" target="30" edge="1">
                    <mxGeometry width="50" height="50" relative="1" as="geometry">
                        <mxPoint x="430" y="509.98" as="sourcePoint"/>
                        <mxPoint x="478.68000000000006" y="448.3" as="targetPoint"/>
                        <Array as="points">
                            <mxPoint x="394" y="500"/>
                            <mxPoint x="540" y="500"/>
                        </Array>
                    </mxGeometry>
                </mxCell>
                <mxCell id="Mpc4OqFYPx4ej4oT6UIc-31" value="" style="endArrow=none;html=1;strokeColor=#000000;strokeWidth=2;exitX=1;exitY=0;exitDx=0;exitDy=0;dashed=1;" parent="1" source="15" edge="1">
                    <mxGeometry width="50" height="50" relative="1" as="geometry">
                        <mxPoint x="124.14213562373106" y="434.14213562373106" as="sourcePoint"/>
                        <mxPoint x="140" y="370" as="targetPoint"/>
                    </mxGeometry>
                </mxCell>
                <mxCell id="Mpc4OqFYPx4ej4oT6UIc-32" value="" style="endArrow=none;html=1;strokeColor=#000000;strokeWidth=2;exitX=0;exitY=0;exitDx=0;exitDy=0;dashed=1;" parent="1" source="22" edge="1">
                    <mxGeometry width="50" height="50" relative="1" as="geometry">
                        <mxPoint x="134.14213562373106" y="444.14213562373106" as="sourcePoint"/>
                        <mxPoint x="220" y="390" as="targetPoint"/>
                    </mxGeometry>
                </mxCell>
                <mxCell id="Mpc4OqFYPx4ej4oT6UIc-33" value="" style="endArrow=none;html=1;strokeColor=#000000;strokeWidth=2;exitX=1;exitY=0;exitDx=0;exitDy=0;dashed=1;" parent="1" source="24" edge="1">
                    <mxGeometry width="50" height="50" relative="1" as="geometry">
                        <mxPoint x="144.14213562373106" y="454.14213562373106" as="sourcePoint"/>
                        <mxPoint x="420" y="370" as="targetPoint"/>
                    </mxGeometry>
                </mxCell>
                <mxCell id="Mpc4OqFYPx4ej4oT6UIc-34" value="" style="endArrow=none;html=1;strokeColor=#000000;strokeWidth=2;exitX=0;exitY=0;exitDx=0;exitDy=0;dashed=1;" parent="1" source="30" edge="1">
                    <mxGeometry width="50" height="50" relative="1" as="geometry">
                        <mxPoint x="154.14213562373106" y="464.14213562373106" as="sourcePoint"/>
                        <mxPoint x="500" y="390" as="targetPoint"/>
                    </mxGeometry>
                </mxCell>
                <mxCell id="Mpc4OqFYPx4ej4oT6UIc-37" value="" style="shape=link;html=1;dashed=1;strokeColor=#000000;" parent="1" edge="1">
                    <mxGeometry width="50" height="50" relative="1" as="geometry">
                        <mxPoint x="540" y="340" as="sourcePoint"/>
                        <mxPoint x="100" y="340" as="targetPoint"/>
                    </mxGeometry>
                </mxCell>
                <mxCell id="Wec3mNHupiSR04pztRO_-31" value="" style="endArrow=classic;html=1;dashed=1;strokeColor=#97D077;strokeWidth=2;" edge="1" parent="1">
                    <mxGeometry width="50" height="50" relative="1" as="geometry">
                        <mxPoint x="420" y="129.5" as="sourcePoint"/>
                        <mxPoint x="470" y="129.5" as="targetPoint"/>
                    </mxGeometry>
                </mxCell>
                <mxCell id="Wec3mNHupiSR04pztRO_-32" value="&lt;font color=&quot;#000000&quot; style=&quot;font-size: 14px&quot;&gt;&lt;b&gt;right thread&lt;/b&gt;&lt;/font&gt;" style="text;html=1;strokeColor=none;fillColor=none;align=center;verticalAlign=middle;whiteSpace=wrap;rounded=0;" vertex="1" parent="1">
                    <mxGeometry x="470" y="120" width="90" height="20" as="geometry"/>
                </mxCell>
            </root>
        </mxGraphModel>
    </diagram>
    <diagram name="one_left_child" id="PGhEoFaMu8bNXuBWCQsl">
        <mxGraphModel dx="1770" dy="2179" grid="1" gridSize="10" guides="1" tooltips="1" connect="1" arrows="1" fold="1" page="1" pageScale="1" pageWidth="827" pageHeight="1169" math="0" shadow="0">
            <root>
                <mxCell id="CeSif-LkQ0VTNuqgXHJz-0"/>
                <mxCell id="CeSif-LkQ0VTNuqgXHJz-1" parent="CeSif-LkQ0VTNuqgXHJz-0"/>
                <mxCell id="xlwciculltp2IdPna9VX-3" value="" style="rounded=0;whiteSpace=wrap;html=1;fillColor=#FFFFFF;strokeColor=none;" parent="CeSif-LkQ0VTNuqgXHJz-1" vertex="1">
                    <mxGeometry x="60" y="-20" width="540" height="1080" as="geometry"/>
                </mxCell>
                <mxCell id="CeSif-LkQ0VTNuqgXHJz-2" value="&lt;font color=&quot;#000000&quot;&gt;parent&lt;/font&gt;" style="ellipse;whiteSpace=wrap;html=1;aspect=fixed;strokeColor=#006EAF;strokeWidth=2;fillColor=#1ba1e2;fontColor=#ffffff;" parent="CeSif-LkQ0VTNuqgXHJz-1" vertex="1">
                    <mxGeometry x="240" y="40" width="40" height="40" as="geometry"/>
                </mxCell>
                <mxCell id="CeSif-LkQ0VTNuqgXHJz-3" value="&lt;font color=&quot;#000000&quot;&gt;deleting&lt;/font&gt;" style="ellipse;whiteSpace=wrap;html=1;aspect=fixed;strokeColor=#FFB366;strokeWidth=2;fillColor=#1ba1e2;fontColor=#ffffff;" parent="CeSif-LkQ0VTNuqgXHJz-1" vertex="1">
                    <mxGeometry x="180" y="100" width="40" height="40" as="geometry"/>
                </mxCell>
                <mxCell id="CeSif-LkQ0VTNuqgXHJz-4" value="" style="endArrow=none;html=1;strokeColor=#000000;strokeWidth=2;exitX=0;exitY=1;exitDx=0;exitDy=0;entryX=1;entryY=0;entryDx=0;entryDy=0;" parent="CeSif-LkQ0VTNuqgXHJz-1" source="CeSif-LkQ0VTNuqgXHJz-2" target="CeSif-LkQ0VTNuqgXHJz-3" edge="1">
                    <mxGeometry width="50" height="50" relative="1" as="geometry">
                        <mxPoint x="205.85786437626894" y="94.14213562373106" as="sourcePoint"/>
                        <mxPoint x="174.14213562373106" y="125.85786437626894" as="targetPoint"/>
                    </mxGeometry>
                </mxCell>
                <mxCell id="CeSif-LkQ0VTNuqgXHJz-5" value="" style="endArrow=classic;html=1;curved=1;strokeColor=#97D077;strokeWidth=2;dashed=1;exitX=0.783;exitY=1.042;exitDx=0;exitDy=0;entryX=0.5;entryY=1;entryDx=0;entryDy=0;edgeStyle=orthogonalEdgeStyle;exitPerimeter=0;" parent="CeSif-LkQ0VTNuqgXHJz-1" source="CeSif-LkQ0VTNuqgXHJz-3" target="CeSif-LkQ0VTNuqgXHJz-2" edge="1">
                    <mxGeometry width="50" height="50" relative="1" as="geometry">
                        <mxPoint x="174.14213562373106" y="154.14213562373106" as="sourcePoint"/>
                        <mxPoint x="220" y="100" as="targetPoint"/>
                    </mxGeometry>
                </mxCell>
                <mxCell id="CeSif-LkQ0VTNuqgXHJz-6" value="" style="endArrow=none;html=1;strokeColor=#000000;strokeWidth=2;entryX=0;entryY=1;entryDx=0;entryDy=0;exitX=0;exitY=0;exitDx=0;exitDy=0;" parent="CeSif-LkQ0VTNuqgXHJz-1" source="CeSif-LkQ0VTNuqgXHJz-23" target="CeSif-LkQ0VTNuqgXHJz-3" edge="1">
                    <mxGeometry width="50" height="50" relative="1" as="geometry">
                        <mxPoint x="154.14213562373106" y="165.85786437626894" as="sourcePoint"/>
                        <mxPoint x="224.14213562373106" y="115.85786437626894" as="targetPoint"/>
                    </mxGeometry>
                </mxCell>
                <mxCell id="CeSif-LkQ0VTNuqgXHJz-8" value="" style="html=1;shadow=0;dashed=0;align=center;verticalAlign=middle;shape=mxgraph.arrows2.arrow;dy=0.45;dx=30.5;notch=0;strokeColor=none;fillColor=#FF9933;" parent="CeSif-LkQ0VTNuqgXHJz-1" vertex="1">
                    <mxGeometry x="300" y="100" width="50" height="40" as="geometry"/>
                </mxCell>
                <mxCell id="CeSif-LkQ0VTNuqgXHJz-9" value="&lt;font color=&quot;#000000&quot;&gt;parent&lt;/font&gt;" style="ellipse;whiteSpace=wrap;html=1;aspect=fixed;strokeColor=#006EAF;strokeWidth=2;fillColor=#1ba1e2;fontColor=#ffffff;" parent="CeSif-LkQ0VTNuqgXHJz-1" vertex="1">
                    <mxGeometry x="440" y="40" width="40" height="40" as="geometry"/>
                </mxCell>
                <mxCell id="CeSif-LkQ0VTNuqgXHJz-10" value="" style="endArrow=none;html=1;strokeColor=#000000;strokeWidth=2;entryX=0;entryY=1;entryDx=0;entryDy=0;exitX=1;exitY=0;exitDx=0;exitDy=0;" parent="CeSif-LkQ0VTNuqgXHJz-1" source="CeSif-LkQ0VTNuqgXHJz-25" target="CeSif-LkQ0VTNuqgXHJz-9" edge="1">
                    <mxGeometry width="50" height="50" relative="1" as="geometry">
                        <mxPoint x="414.14213562373106" y="105.85786437626894" as="sourcePoint"/>
                        <mxPoint x="425.85786437626894" y="144.14213562373106" as="targetPoint"/>
                    </mxGeometry>
                </mxCell>
                <mxCell id="CeSif-LkQ0VTNuqgXHJz-12" value="&lt;font color=&quot;#000000&quot;&gt;parent&lt;/font&gt;" style="ellipse;whiteSpace=wrap;html=1;aspect=fixed;strokeColor=#006EAF;strokeWidth=2;fillColor=#1ba1e2;fontColor=#ffffff;" parent="CeSif-LkQ0VTNuqgXHJz-1" vertex="1">
                    <mxGeometry x="240" y="500" width="40" height="40" as="geometry"/>
                </mxCell>
                <mxCell id="CeSif-LkQ0VTNuqgXHJz-13" value="&lt;font color=&quot;#000000&quot;&gt;deleting&lt;/font&gt;" style="ellipse;whiteSpace=wrap;html=1;aspect=fixed;strokeColor=#FFB366;strokeWidth=2;fillColor=#1ba1e2;fontColor=#ffffff;" parent="CeSif-LkQ0VTNuqgXHJz-1" vertex="1">
                    <mxGeometry x="180" y="560" width="40" height="40" as="geometry"/>
                </mxCell>
                <mxCell id="CeSif-LkQ0VTNuqgXHJz-14" value="" style="endArrow=none;html=1;strokeColor=#000000;strokeWidth=2;exitX=0;exitY=1;exitDx=0;exitDy=0;entryX=1;entryY=0;entryDx=0;entryDy=0;" parent="CeSif-LkQ0VTNuqgXHJz-1" source="CeSif-LkQ0VTNuqgXHJz-12" target="CeSif-LkQ0VTNuqgXHJz-13" edge="1">
                    <mxGeometry width="50" height="50" relative="1" as="geometry">
                        <mxPoint x="145.85786437626894" y="554.1421356237311" as="sourcePoint"/>
                        <mxPoint x="114.14213562373106" y="585.8578643762689" as="targetPoint"/>
                    </mxGeometry>
                </mxCell>
                <mxCell id="CeSif-LkQ0VTNuqgXHJz-15" value="" style="endArrow=none;html=1;strokeColor=#000000;strokeWidth=2;entryX=0;entryY=1;entryDx=0;entryDy=0;exitX=1;exitY=0;exitDx=0;exitDy=0;" parent="CeSif-LkQ0VTNuqgXHJz-1" source="NnDIAgsHRutLFN9ROoSn-0" target="CeSif-LkQ0VTNuqgXHJz-13" edge="1">
                    <mxGeometry width="50" height="50" relative="1" as="geometry">
                        <mxPoint x="214.14213562373106" y="625.8578643762689" as="sourcePoint"/>
                        <mxPoint x="164.14213562373106" y="575.8578643762689" as="targetPoint"/>
                    </mxGeometry>
                </mxCell>
                <mxCell id="CeSif-LkQ0VTNuqgXHJz-19" value="" style="html=1;shadow=0;dashed=0;align=center;verticalAlign=middle;shape=mxgraph.arrows2.arrow;dy=0.45;dx=30.5;notch=0;strokeColor=none;fillColor=#FF9933;" parent="CeSif-LkQ0VTNuqgXHJz-1" vertex="1">
                    <mxGeometry x="300" y="560" width="50" height="40" as="geometry"/>
                </mxCell>
                <mxCell id="CeSif-LkQ0VTNuqgXHJz-23" value="&lt;font color=&quot;#000000&quot;&gt;replacing&lt;/font&gt;" style="ellipse;whiteSpace=wrap;html=1;aspect=fixed;strokeColor=#006EAF;strokeWidth=2;fillColor=#1ba1e2;fontColor=#ffffff;direction=south;" parent="CeSif-LkQ0VTNuqgXHJz-1" vertex="1">
                    <mxGeometry x="120" y="160" width="40" height="40" as="geometry"/>
                </mxCell>
                <mxCell id="CeSif-LkQ0VTNuqgXHJz-24" value="" style="endArrow=classic;html=1;curved=1;strokeColor=#97D077;strokeWidth=2;dashed=1;exitX=1;exitY=0;exitDx=0;exitDy=0;entryX=0.5;entryY=1;entryDx=0;entryDy=0;edgeStyle=orthogonalEdgeStyle;" parent="CeSif-LkQ0VTNuqgXHJz-1" source="CeSif-LkQ0VTNuqgXHJz-23" target="CeSif-LkQ0VTNuqgXHJz-3" edge="1">
                    <mxGeometry width="50" height="50" relative="1" as="geometry">
                        <mxPoint x="221.31999999999994" y="151.68000000000006" as="sourcePoint"/>
                        <mxPoint x="270" y="90" as="targetPoint"/>
                    </mxGeometry>
                </mxCell>
                <mxCell id="CeSif-LkQ0VTNuqgXHJz-25" value="&lt;font color=&quot;#000000&quot;&gt;replacing&lt;/font&gt;" style="ellipse;whiteSpace=wrap;html=1;aspect=fixed;strokeColor=#006EAF;strokeWidth=2;fillColor=#1ba1e2;fontColor=#ffffff;" parent="CeSif-LkQ0VTNuqgXHJz-1" vertex="1">
                    <mxGeometry x="380" y="100" width="40" height="40" as="geometry"/>
                </mxCell>
                <mxCell id="CeSif-LkQ0VTNuqgXHJz-27" value="" style="endArrow=classic;html=1;curved=1;strokeColor=#97D077;strokeWidth=2;dashed=1;exitX=1;exitY=1;exitDx=0;exitDy=0;entryX=0.5;entryY=1;entryDx=0;entryDy=0;edgeStyle=orthogonalEdgeStyle;" parent="CeSif-LkQ0VTNuqgXHJz-1" source="CeSif-LkQ0VTNuqgXHJz-25" target="CeSif-LkQ0VTNuqgXHJz-9" edge="1">
                    <mxGeometry width="50" height="50" relative="1" as="geometry">
                        <mxPoint x="439.99999999999994" y="150.83000000000004" as="sourcePoint"/>
                        <mxPoint x="488.68" y="89.15" as="targetPoint"/>
                    </mxGeometry>
                </mxCell>
                <mxCell id="NnDIAgsHRutLFN9ROoSn-0" value="&lt;font color=&quot;#000000&quot;&gt;replacing&lt;/font&gt;" style="ellipse;whiteSpace=wrap;html=1;aspect=fixed;strokeColor=#006EAF;strokeWidth=2;fillColor=#1ba1e2;fontColor=#ffffff;" parent="CeSif-LkQ0VTNuqgXHJz-1" vertex="1">
                    <mxGeometry x="120" y="620" width="40" height="40" as="geometry"/>
                </mxCell>
                <mxCell id="NnDIAgsHRutLFN9ROoSn-1" value="" style="ellipse;whiteSpace=wrap;html=1;aspect=fixed;strokeColor=#006EAF;strokeWidth=2;fillColor=#1ba1e2;fontColor=#ffffff;" parent="CeSif-LkQ0VTNuqgXHJz-1" vertex="1">
                    <mxGeometry x="160" y="680" width="40" height="40" as="geometry"/>
                </mxCell>
                <mxCell id="NnDIAgsHRutLFN9ROoSn-2" value="" style="ellipse;whiteSpace=wrap;html=1;aspect=fixed;strokeColor=#006EAF;strokeWidth=2;fillColor=#1ba1e2;fontColor=#ffffff;" parent="CeSif-LkQ0VTNuqgXHJz-1" vertex="1">
                    <mxGeometry x="80" y="680" width="40" height="40" as="geometry"/>
                </mxCell>
                <mxCell id="NnDIAgsHRutLFN9ROoSn-3" value="" style="endArrow=none;html=1;strokeColor=#000000;strokeWidth=2;entryX=0;entryY=1;entryDx=0;entryDy=0;exitX=1;exitY=0;exitDx=0;exitDy=0;" parent="CeSif-LkQ0VTNuqgXHJz-1" source="NnDIAgsHRutLFN9ROoSn-2" target="NnDIAgsHRutLFN9ROoSn-0" edge="1">
                    <mxGeometry width="50" height="50" relative="1" as="geometry">
                        <mxPoint x="164.14213562373106" y="635.8578643762689" as="sourcePoint"/>
                        <mxPoint x="195.85786437626894" y="604.1421356237311" as="targetPoint"/>
                    </mxGeometry>
                </mxCell>
                <mxCell id="NnDIAgsHRutLFN9ROoSn-4" value="" style="endArrow=none;html=1;strokeColor=#000000;strokeWidth=2;entryX=0;entryY=0;entryDx=0;entryDy=0;exitX=1;exitY=1;exitDx=0;exitDy=0;" parent="CeSif-LkQ0VTNuqgXHJz-1" source="NnDIAgsHRutLFN9ROoSn-0" target="NnDIAgsHRutLFN9ROoSn-1" edge="1">
                    <mxGeometry width="50" height="50" relative="1" as="geometry">
                        <mxPoint x="174.14213562373106" y="645.8578643762689" as="sourcePoint"/>
                        <mxPoint x="205.85786437626894" y="614.1421356237311" as="targetPoint"/>
                    </mxGeometry>
                </mxCell>
                <mxCell id="NnDIAgsHRutLFN9ROoSn-5" value="" style="endArrow=classic;html=1;curved=1;strokeColor=#97D077;strokeWidth=2;dashed=1;exitX=1;exitY=1;exitDx=0;exitDy=0;entryX=0.5;entryY=1;entryDx=0;entryDy=0;edgeStyle=orthogonalEdgeStyle;" parent="CeSif-LkQ0VTNuqgXHJz-1" source="CeSif-LkQ0VTNuqgXHJz-13" target="CeSif-LkQ0VTNuqgXHJz-12" edge="1">
                    <mxGeometry width="50" height="50" relative="1" as="geometry">
                        <mxPoint x="237.07213562373107" y="634.1421356237311" as="sourcePoint"/>
                        <mxPoint x="282.93" y="580" as="targetPoint"/>
                    </mxGeometry>
                </mxCell>
                <mxCell id="NnDIAgsHRutLFN9ROoSn-6" value="" style="endArrow=classic;html=1;curved=1;strokeColor=#97D077;strokeWidth=2;dashed=1;exitX=1;exitY=1;exitDx=0;exitDy=0;entryX=0.5;entryY=1;entryDx=0;entryDy=0;edgeStyle=orthogonalEdgeStyle;" parent="CeSif-LkQ0VTNuqgXHJz-1" source="NnDIAgsHRutLFN9ROoSn-1" target="CeSif-LkQ0VTNuqgXHJz-13" edge="1">
                    <mxGeometry width="50" height="50" relative="1" as="geometry">
                        <mxPoint x="200.00213562373108" y="754.1421356237311" as="sourcePoint"/>
                        <mxPoint x="245.86" y="700" as="targetPoint"/>
                        <Array as="points">
                            <mxPoint x="194" y="740"/>
                            <mxPoint x="230" y="740"/>
                            <mxPoint x="230" y="670"/>
                            <mxPoint x="200" y="670"/>
                        </Array>
                    </mxGeometry>
                </mxCell>
                <mxCell id="NnDIAgsHRutLFN9ROoSn-7" value="&lt;font color=&quot;#000000&quot;&gt;parent&lt;/font&gt;" style="ellipse;whiteSpace=wrap;html=1;aspect=fixed;strokeColor=#006EAF;strokeWidth=2;fillColor=#1ba1e2;fontColor=#ffffff;" parent="CeSif-LkQ0VTNuqgXHJz-1" vertex="1">
                    <mxGeometry x="480" y="500" width="40" height="40" as="geometry"/>
                </mxCell>
                <mxCell id="NnDIAgsHRutLFN9ROoSn-9" value="" style="endArrow=none;html=1;strokeColor=#000000;strokeWidth=2;exitX=0;exitY=1;exitDx=0;exitDy=0;entryX=1;entryY=0;entryDx=0;entryDy=0;" parent="CeSif-LkQ0VTNuqgXHJz-1" source="NnDIAgsHRutLFN9ROoSn-7" target="NnDIAgsHRutLFN9ROoSn-11" edge="1">
                    <mxGeometry width="50" height="50" relative="1" as="geometry">
                        <mxPoint x="415.85786437626894" y="554.1421356237311" as="sourcePoint"/>
                        <mxPoint x="484.14213562373106" y="565.8578643762689" as="targetPoint"/>
                    </mxGeometry>
                </mxCell>
                <mxCell id="NnDIAgsHRutLFN9ROoSn-11" value="&lt;font color=&quot;#000000&quot;&gt;replacing&lt;/font&gt;" style="ellipse;whiteSpace=wrap;html=1;aspect=fixed;strokeColor=#006EAF;strokeWidth=2;fillColor=#1ba1e2;fontColor=#ffffff;" parent="CeSif-LkQ0VTNuqgXHJz-1" vertex="1">
                    <mxGeometry x="420" y="560" width="40" height="40" as="geometry"/>
                </mxCell>
                <mxCell id="NnDIAgsHRutLFN9ROoSn-12" value="" style="ellipse;whiteSpace=wrap;html=1;aspect=fixed;strokeColor=#006EAF;strokeWidth=2;fillColor=#1ba1e2;fontColor=#ffffff;" parent="CeSif-LkQ0VTNuqgXHJz-1" vertex="1">
                    <mxGeometry x="460" y="620" width="40" height="40" as="geometry"/>
                </mxCell>
                <mxCell id="NnDIAgsHRutLFN9ROoSn-13" value="" style="ellipse;whiteSpace=wrap;html=1;aspect=fixed;strokeColor=#006EAF;strokeWidth=2;fillColor=#1ba1e2;fontColor=#ffffff;" parent="CeSif-LkQ0VTNuqgXHJz-1" vertex="1">
                    <mxGeometry x="380" y="620" width="40" height="40" as="geometry"/>
                </mxCell>
                <mxCell id="NnDIAgsHRutLFN9ROoSn-14" value="" style="endArrow=none;html=1;strokeColor=#000000;strokeWidth=2;entryX=0;entryY=1;entryDx=0;entryDy=0;exitX=1;exitY=0;exitDx=0;exitDy=0;" parent="CeSif-LkQ0VTNuqgXHJz-1" source="NnDIAgsHRutLFN9ROoSn-13" target="NnDIAgsHRutLFN9ROoSn-11" edge="1">
                    <mxGeometry width="50" height="50" relative="1" as="geometry">
                        <mxPoint x="434.14213562373106" y="635.8578643762689" as="sourcePoint"/>
                        <mxPoint x="465.85786437626894" y="604.1421356237311" as="targetPoint"/>
                    </mxGeometry>
                </mxCell>
                <mxCell id="NnDIAgsHRutLFN9ROoSn-15" value="" style="endArrow=none;html=1;strokeColor=#000000;strokeWidth=2;entryX=0;entryY=0;entryDx=0;entryDy=0;exitX=1;exitY=1;exitDx=0;exitDy=0;" parent="CeSif-LkQ0VTNuqgXHJz-1" source="NnDIAgsHRutLFN9ROoSn-11" target="NnDIAgsHRutLFN9ROoSn-12" edge="1">
                    <mxGeometry width="50" height="50" relative="1" as="geometry">
                        <mxPoint x="444.14213562373106" y="645.8578643762689" as="sourcePoint"/>
                        <mxPoint x="475.85786437626894" y="614.1421356237311" as="targetPoint"/>
                    </mxGeometry>
                </mxCell>
                <mxCell id="NnDIAgsHRutLFN9ROoSn-18" value="" style="endArrow=classic;html=1;curved=1;strokeColor=#97D077;strokeWidth=2;dashed=1;exitX=1;exitY=1;exitDx=0;exitDy=0;entryX=0.5;entryY=1;entryDx=0;entryDy=0;edgeStyle=orthogonalEdgeStyle;" parent="CeSif-LkQ0VTNuqgXHJz-1" source="NnDIAgsHRutLFN9ROoSn-12" target="NnDIAgsHRutLFN9ROoSn-7" edge="1">
                    <mxGeometry width="50" height="50" relative="1" as="geometry">
                        <mxPoint x="560.0021356237311" y="654.1421356237311" as="sourcePoint"/>
                        <mxPoint x="605.86" y="600" as="targetPoint"/>
                        <Array as="points">
                            <mxPoint x="494" y="670"/>
                            <mxPoint x="520" y="670"/>
                            <mxPoint x="520" y="620"/>
                            <mxPoint x="500" y="620"/>
                        </Array>
                    </mxGeometry>
                </mxCell>
                <mxCell id="NnDIAgsHRutLFN9ROoSn-39" value="&lt;font color=&quot;#000000&quot;&gt;parent&lt;/font&gt;" style="ellipse;whiteSpace=wrap;html=1;aspect=fixed;strokeColor=#006EAF;strokeWidth=2;fillColor=#1ba1e2;fontColor=#ffffff;" parent="CeSif-LkQ0VTNuqgXHJz-1" vertex="1">
                    <mxGeometry x="105" y="280" width="40" height="40" as="geometry"/>
                </mxCell>
                <mxCell id="NnDIAgsHRutLFN9ROoSn-40" value="&lt;font color=&quot;#000000&quot;&gt;deleting&lt;/font&gt;" style="ellipse;whiteSpace=wrap;html=1;aspect=fixed;strokeColor=#FFB366;strokeWidth=2;fillColor=#1ba1e2;fontColor=#ffffff;" parent="CeSif-LkQ0VTNuqgXHJz-1" vertex="1">
                    <mxGeometry x="165" y="340" width="40" height="40" as="geometry"/>
                </mxCell>
                <mxCell id="NnDIAgsHRutLFN9ROoSn-41" value="" style="endArrow=none;html=1;strokeColor=#000000;strokeWidth=2;exitX=1;exitY=1;exitDx=0;exitDy=0;entryX=0;entryY=0;entryDx=0;entryDy=0;" parent="CeSif-LkQ0VTNuqgXHJz-1" source="NnDIAgsHRutLFN9ROoSn-39" target="NnDIAgsHRutLFN9ROoSn-40" edge="1">
                    <mxGeometry width="50" height="50" relative="1" as="geometry">
                        <mxPoint x="130.85786437626894" y="404.14213562373106" as="sourcePoint"/>
                        <mxPoint x="99.14213562373106" y="435.85786437626894" as="targetPoint"/>
                    </mxGeometry>
                </mxCell>
                <mxCell id="NnDIAgsHRutLFN9ROoSn-43" value="" style="endArrow=none;html=1;strokeColor=#000000;strokeWidth=2;entryX=0;entryY=1;entryDx=0;entryDy=0;exitX=0;exitY=0;exitDx=0;exitDy=0;" parent="CeSif-LkQ0VTNuqgXHJz-1" source="NnDIAgsHRutLFN9ROoSn-47" target="NnDIAgsHRutLFN9ROoSn-40" edge="1">
                    <mxGeometry width="50" height="50" relative="1" as="geometry">
                        <mxPoint x="79.14213562373106" y="475.85786437626894" as="sourcePoint"/>
                        <mxPoint x="149.14213562373106" y="425.85786437626894" as="targetPoint"/>
                    </mxGeometry>
                </mxCell>
                <mxCell id="NnDIAgsHRutLFN9ROoSn-44" value="" style="html=1;shadow=0;dashed=0;align=center;verticalAlign=middle;shape=mxgraph.arrows2.arrow;dy=0.45;dx=30.5;notch=0;strokeColor=none;fillColor=#FF9933;" parent="CeSif-LkQ0VTNuqgXHJz-1" vertex="1">
                    <mxGeometry x="305" y="340" width="50" height="40" as="geometry"/>
                </mxCell>
                <mxCell id="NnDIAgsHRutLFN9ROoSn-47" value="&lt;font color=&quot;#000000&quot;&gt;replacing&lt;/font&gt;" style="ellipse;whiteSpace=wrap;html=1;aspect=fixed;strokeColor=#006EAF;strokeWidth=2;fillColor=#1ba1e2;fontColor=#ffffff;direction=south;" parent="CeSif-LkQ0VTNuqgXHJz-1" vertex="1">
                    <mxGeometry x="105" y="400" width="40" height="40" as="geometry"/>
                </mxCell>
                <mxCell id="ZxbC2Xd3HvjLgOjPFKle-0" value="" style="endArrow=classic;html=1;curved=1;strokeColor=#97D077;strokeWidth=2;dashed=1;entryX=0.5;entryY=1;entryDx=0;entryDy=0;edgeStyle=orthogonalEdgeStyle;exitX=1;exitY=1;exitDx=0;exitDy=0;" parent="CeSif-LkQ0VTNuqgXHJz-1" source="NnDIAgsHRutLFN9ROoSn-40" target="ZxbC2Xd3HvjLgOjPFKle-1" edge="1">
                    <mxGeometry width="50" height="50" relative="1" as="geometry">
                        <mxPoint x="179.14213562373106" y="374.14213562373106" as="sourcePoint"/>
                        <mxPoint x="243.68" y="338.3" as="targetPoint"/>
                        <Array as="points">
                            <mxPoint x="199" y="400"/>
                            <mxPoint x="265" y="400"/>
                        </Array>
                    </mxGeometry>
                </mxCell>
                <mxCell id="ZxbC2Xd3HvjLgOjPFKle-1" value="&lt;font color=&quot;#000000&quot;&gt;successor&lt;/font&gt;" style="ellipse;whiteSpace=wrap;html=1;aspect=fixed;strokeColor=#006EAF;strokeWidth=2;fillColor=#1ba1e2;fontColor=#ffffff;" parent="CeSif-LkQ0VTNuqgXHJz-1" vertex="1">
                    <mxGeometry x="245" y="300" width="40" height="40" as="geometry"/>
                </mxCell>
                <mxCell id="ZxbC2Xd3HvjLgOjPFKle-2" value="" style="endArrow=classic;html=1;curved=1;strokeColor=#97D077;strokeWidth=2;dashed=1;exitX=1;exitY=0;exitDx=0;exitDy=0;entryX=0.5;entryY=1;entryDx=0;entryDy=0;edgeStyle=orthogonalEdgeStyle;" parent="CeSif-LkQ0VTNuqgXHJz-1" source="NnDIAgsHRutLFN9ROoSn-47" target="NnDIAgsHRutLFN9ROoSn-40" edge="1">
                    <mxGeometry width="50" height="50" relative="1" as="geometry">
                        <mxPoint x="135.00213562373108" y="464.14213562373106" as="sourcePoint"/>
                        <mxPoint x="180.86" y="410" as="targetPoint"/>
                    </mxGeometry>
                </mxCell>
                <mxCell id="ZxbC2Xd3HvjLgOjPFKle-3" value="&lt;font color=&quot;#000000&quot;&gt;parent&lt;/font&gt;" style="ellipse;whiteSpace=wrap;html=1;aspect=fixed;strokeColor=#006EAF;strokeWidth=2;fillColor=#1ba1e2;fontColor=#ffffff;" parent="CeSif-LkQ0VTNuqgXHJz-1" vertex="1">
                    <mxGeometry x="365" y="280" width="40" height="40" as="geometry"/>
                </mxCell>
                <mxCell id="ZxbC2Xd3HvjLgOjPFKle-5" value="" style="endArrow=none;html=1;strokeColor=#000000;strokeWidth=2;exitX=1;exitY=1;exitDx=0;exitDy=0;entryX=0;entryY=1;entryDx=0;entryDy=0;" parent="CeSif-LkQ0VTNuqgXHJz-1" source="ZxbC2Xd3HvjLgOjPFKle-3" target="ZxbC2Xd3HvjLgOjPFKle-7" edge="1">
                    <mxGeometry width="50" height="50" relative="1" as="geometry">
                        <mxPoint x="390.85786437626894" y="404.14213562373106" as="sourcePoint"/>
                        <mxPoint x="430.85786437626894" y="345.85786437626894" as="targetPoint"/>
                    </mxGeometry>
                </mxCell>
                <mxCell id="ZxbC2Xd3HvjLgOjPFKle-7" value="&lt;font color=&quot;#000000&quot;&gt;replacing&lt;/font&gt;" style="ellipse;whiteSpace=wrap;html=1;aspect=fixed;strokeColor=#006EAF;strokeWidth=2;fillColor=#1ba1e2;fontColor=#ffffff;direction=south;" parent="CeSif-LkQ0VTNuqgXHJz-1" vertex="1">
                    <mxGeometry x="425" y="340" width="40" height="40" as="geometry"/>
                </mxCell>
                <mxCell id="ZxbC2Xd3HvjLgOjPFKle-9" value="&lt;font color=&quot;#000000&quot;&gt;successor&lt;/font&gt;" style="ellipse;whiteSpace=wrap;html=1;aspect=fixed;strokeColor=#006EAF;strokeWidth=2;fillColor=#1ba1e2;fontColor=#ffffff;" parent="CeSif-LkQ0VTNuqgXHJz-1" vertex="1">
                    <mxGeometry x="505" y="300" width="40" height="40" as="geometry"/>
                </mxCell>
                <mxCell id="ZxbC2Xd3HvjLgOjPFKle-12" value="" style="endArrow=classic;html=1;curved=1;strokeColor=#97D077;strokeWidth=2;dashed=1;exitX=1;exitY=0;exitDx=0;exitDy=0;entryX=0.5;entryY=1;entryDx=0;entryDy=0;edgeStyle=orthogonalEdgeStyle;" parent="CeSif-LkQ0VTNuqgXHJz-1" source="ZxbC2Xd3HvjLgOjPFKle-7" target="ZxbC2Xd3HvjLgOjPFKle-9" edge="1">
                    <mxGeometry width="50" height="50" relative="1" as="geometry">
                        <mxPoint x="475.0021356237311" y="410.0021356237311" as="sourcePoint"/>
                        <mxPoint x="520.86" y="355.86" as="targetPoint"/>
                        <Array as="points">
                            <mxPoint x="459" y="400"/>
                            <mxPoint x="525" y="400"/>
                        </Array>
                    </mxGeometry>
                </mxCell>
                <mxCell id="ZxbC2Xd3HvjLgOjPFKle-14" value="&lt;font color=&quot;#000000&quot;&gt;parent&lt;/font&gt;" style="ellipse;whiteSpace=wrap;html=1;aspect=fixed;strokeColor=#006EAF;strokeWidth=2;fillColor=#1ba1e2;fontColor=#ffffff;" parent="CeSif-LkQ0VTNuqgXHJz-1" vertex="1">
                    <mxGeometry x="110" y="800" width="40" height="40" as="geometry"/>
                </mxCell>
                <mxCell id="ZxbC2Xd3HvjLgOjPFKle-15" value="&lt;font color=&quot;#000000&quot;&gt;deleting&lt;/font&gt;" style="ellipse;whiteSpace=wrap;html=1;aspect=fixed;strokeColor=#FFB366;strokeWidth=2;fillColor=#1ba1e2;fontColor=#ffffff;" parent="CeSif-LkQ0VTNuqgXHJz-1" vertex="1">
                    <mxGeometry x="170" y="860" width="40" height="40" as="geometry"/>
                </mxCell>
                <mxCell id="ZxbC2Xd3HvjLgOjPFKle-16" value="" style="endArrow=none;html=1;strokeColor=#000000;strokeWidth=2;exitX=1;exitY=1;exitDx=0;exitDy=0;entryX=0;entryY=0;entryDx=0;entryDy=0;" parent="CeSif-LkQ0VTNuqgXHJz-1" source="ZxbC2Xd3HvjLgOjPFKle-14" target="ZxbC2Xd3HvjLgOjPFKle-15" edge="1">
                    <mxGeometry width="50" height="50" relative="1" as="geometry">
                        <mxPoint x="135.85786437626894" y="854.1421356237311" as="sourcePoint"/>
                        <mxPoint x="104.14213562373106" y="885.8578643762689" as="targetPoint"/>
                    </mxGeometry>
                </mxCell>
                <mxCell id="ZxbC2Xd3HvjLgOjPFKle-17" value="" style="endArrow=none;html=1;strokeColor=#000000;strokeWidth=2;entryX=0;entryY=1;entryDx=0;entryDy=0;exitX=1;exitY=0;exitDx=0;exitDy=0;" parent="CeSif-LkQ0VTNuqgXHJz-1" source="ZxbC2Xd3HvjLgOjPFKle-19" target="ZxbC2Xd3HvjLgOjPFKle-15" edge="1">
                    <mxGeometry width="50" height="50" relative="1" as="geometry">
                        <mxPoint x="204.14213562373106" y="925.8578643762689" as="sourcePoint"/>
                        <mxPoint x="154.14213562373106" y="875.8578643762689" as="targetPoint"/>
                    </mxGeometry>
                </mxCell>
                <mxCell id="ZxbC2Xd3HvjLgOjPFKle-18" value="" style="html=1;shadow=0;dashed=0;align=center;verticalAlign=middle;shape=mxgraph.arrows2.arrow;dy=0.45;dx=30.5;notch=0;strokeColor=none;fillColor=#FF9933;" parent="CeSif-LkQ0VTNuqgXHJz-1" vertex="1">
                    <mxGeometry x="300" y="860" width="50" height="40" as="geometry"/>
                </mxCell>
                <mxCell id="ZxbC2Xd3HvjLgOjPFKle-19" value="&lt;font color=&quot;#000000&quot;&gt;replacing&lt;/font&gt;" style="ellipse;whiteSpace=wrap;html=1;aspect=fixed;strokeColor=#006EAF;strokeWidth=2;fillColor=#1ba1e2;fontColor=#ffffff;" parent="CeSif-LkQ0VTNuqgXHJz-1" vertex="1">
                    <mxGeometry x="110" y="920" width="40" height="40" as="geometry"/>
                </mxCell>
                <mxCell id="ZxbC2Xd3HvjLgOjPFKle-20" value="" style="ellipse;whiteSpace=wrap;html=1;aspect=fixed;strokeColor=#006EAF;strokeWidth=2;fillColor=#1ba1e2;fontColor=#ffffff;" parent="CeSif-LkQ0VTNuqgXHJz-1" vertex="1">
                    <mxGeometry x="150" y="980" width="40" height="40" as="geometry"/>
                </mxCell>
                <mxCell id="ZxbC2Xd3HvjLgOjPFKle-21" value="" style="ellipse;whiteSpace=wrap;html=1;aspect=fixed;strokeColor=#006EAF;strokeWidth=2;fillColor=#1ba1e2;fontColor=#ffffff;" parent="CeSif-LkQ0VTNuqgXHJz-1" vertex="1">
                    <mxGeometry x="70" y="980" width="40" height="40" as="geometry"/>
                </mxCell>
                <mxCell id="ZxbC2Xd3HvjLgOjPFKle-22" value="" style="endArrow=none;html=1;strokeColor=#000000;strokeWidth=2;entryX=0;entryY=1;entryDx=0;entryDy=0;exitX=1;exitY=0;exitDx=0;exitDy=0;" parent="CeSif-LkQ0VTNuqgXHJz-1" source="ZxbC2Xd3HvjLgOjPFKle-21" target="ZxbC2Xd3HvjLgOjPFKle-19" edge="1">
                    <mxGeometry width="50" height="50" relative="1" as="geometry">
                        <mxPoint x="154.14213562373106" y="935.8578643762689" as="sourcePoint"/>
                        <mxPoint x="185.85786437626894" y="904.1421356237311" as="targetPoint"/>
                    </mxGeometry>
                </mxCell>
                <mxCell id="ZxbC2Xd3HvjLgOjPFKle-23" value="" style="endArrow=none;html=1;strokeColor=#000000;strokeWidth=2;entryX=0;entryY=0;entryDx=0;entryDy=0;exitX=1;exitY=1;exitDx=0;exitDy=0;" parent="CeSif-LkQ0VTNuqgXHJz-1" source="ZxbC2Xd3HvjLgOjPFKle-19" target="ZxbC2Xd3HvjLgOjPFKle-20" edge="1">
                    <mxGeometry width="50" height="50" relative="1" as="geometry">
                        <mxPoint x="164.14213562373106" y="945.8578643762689" as="sourcePoint"/>
                        <mxPoint x="195.85786437626894" y="914.1421356237311" as="targetPoint"/>
                    </mxGeometry>
                </mxCell>
                <mxCell id="ZxbC2Xd3HvjLgOjPFKle-34" value="" style="endArrow=classic;html=1;curved=1;strokeColor=#97D077;strokeWidth=2;dashed=1;entryX=0.5;entryY=1;entryDx=0;entryDy=0;edgeStyle=orthogonalEdgeStyle;exitX=1;exitY=1;exitDx=0;exitDy=0;" parent="CeSif-LkQ0VTNuqgXHJz-1" target="ZxbC2Xd3HvjLgOjPFKle-35" edge="1">
                    <mxGeometry width="50" height="50" relative="1" as="geometry">
                        <mxPoint x="204.14213562373106" y="894.1421356237311" as="sourcePoint"/>
                        <mxPoint x="248.68" y="858.3" as="targetPoint"/>
                        <Array as="points">
                            <mxPoint x="204" y="920"/>
                            <mxPoint x="270" y="920"/>
                        </Array>
                    </mxGeometry>
                </mxCell>
                <mxCell id="ZxbC2Xd3HvjLgOjPFKle-35" value="&lt;font color=&quot;#000000&quot;&gt;successor&lt;/font&gt;" style="ellipse;whiteSpace=wrap;html=1;aspect=fixed;strokeColor=#006EAF;strokeWidth=2;fillColor=#1ba1e2;fontColor=#ffffff;" parent="CeSif-LkQ0VTNuqgXHJz-1" vertex="1">
                    <mxGeometry x="250" y="820" width="40" height="40" as="geometry"/>
                </mxCell>
                <mxCell id="ZxbC2Xd3HvjLgOjPFKle-36" value="" style="endArrow=classic;html=1;curved=1;strokeColor=#97D077;strokeWidth=2;dashed=1;entryX=0.5;entryY=1;entryDx=0;entryDy=0;edgeStyle=orthogonalEdgeStyle;exitX=1;exitY=1;exitDx=0;exitDy=0;" parent="CeSif-LkQ0VTNuqgXHJz-1" source="ZxbC2Xd3HvjLgOjPFKle-20" target="ZxbC2Xd3HvjLgOjPFKle-15" edge="1">
                    <mxGeometry width="50" height="50" relative="1" as="geometry">
                        <mxPoint x="214.14213562373106" y="904.1421356237311" as="sourcePoint"/>
                        <mxPoint x="280" y="870" as="targetPoint"/>
                        <Array as="points">
                            <mxPoint x="184" y="1050"/>
                            <mxPoint x="214" y="1050"/>
                            <mxPoint x="214" y="970"/>
                            <mxPoint x="190" y="970"/>
                        </Array>
                    </mxGeometry>
                </mxCell>
                <mxCell id="ZxbC2Xd3HvjLgOjPFKle-37" value="&lt;font color=&quot;#000000&quot;&gt;parent&lt;/font&gt;" style="ellipse;whiteSpace=wrap;html=1;aspect=fixed;strokeColor=#006EAF;strokeWidth=2;fillColor=#1ba1e2;fontColor=#ffffff;" parent="CeSif-LkQ0VTNuqgXHJz-1" vertex="1">
                    <mxGeometry x="390" y="800" width="40" height="40" as="geometry"/>
                </mxCell>
                <mxCell id="ZxbC2Xd3HvjLgOjPFKle-39" value="" style="endArrow=none;html=1;strokeColor=#000000;strokeWidth=2;exitX=1;exitY=1;exitDx=0;exitDy=0;entryX=0;entryY=0;entryDx=0;entryDy=0;" parent="CeSif-LkQ0VTNuqgXHJz-1" source="ZxbC2Xd3HvjLgOjPFKle-37" target="ZxbC2Xd3HvjLgOjPFKle-41" edge="1">
                    <mxGeometry width="50" height="50" relative="1" as="geometry">
                        <mxPoint x="415.85786437626894" y="854.1421356237311" as="sourcePoint"/>
                        <mxPoint x="455.85786437626894" y="865.8578643762689" as="targetPoint"/>
                    </mxGeometry>
                </mxCell>
                <mxCell id="ZxbC2Xd3HvjLgOjPFKle-41" value="&lt;font color=&quot;#000000&quot;&gt;replacing&lt;/font&gt;" style="ellipse;whiteSpace=wrap;html=1;aspect=fixed;strokeColor=#006EAF;strokeWidth=2;fillColor=#1ba1e2;fontColor=#ffffff;" parent="CeSif-LkQ0VTNuqgXHJz-1" vertex="1">
                    <mxGeometry x="450" y="860" width="40" height="40" as="geometry"/>
                </mxCell>
                <mxCell id="ZxbC2Xd3HvjLgOjPFKle-42" value="" style="ellipse;whiteSpace=wrap;html=1;aspect=fixed;strokeColor=#006EAF;strokeWidth=2;fillColor=#1ba1e2;fontColor=#ffffff;" parent="CeSif-LkQ0VTNuqgXHJz-1" vertex="1">
                    <mxGeometry x="490" y="920" width="40" height="40" as="geometry"/>
                </mxCell>
                <mxCell id="ZxbC2Xd3HvjLgOjPFKle-43" value="" style="ellipse;whiteSpace=wrap;html=1;aspect=fixed;strokeColor=#006EAF;strokeWidth=2;fillColor=#1ba1e2;fontColor=#ffffff;" parent="CeSif-LkQ0VTNuqgXHJz-1" vertex="1">
                    <mxGeometry x="410" y="920" width="40" height="40" as="geometry"/>
                </mxCell>
                <mxCell id="ZxbC2Xd3HvjLgOjPFKle-44" value="" style="endArrow=none;html=1;strokeColor=#000000;strokeWidth=2;entryX=0;entryY=1;entryDx=0;entryDy=0;exitX=1;exitY=0;exitDx=0;exitDy=0;" parent="CeSif-LkQ0VTNuqgXHJz-1" source="ZxbC2Xd3HvjLgOjPFKle-43" target="ZxbC2Xd3HvjLgOjPFKle-41" edge="1">
                    <mxGeometry width="50" height="50" relative="1" as="geometry">
                        <mxPoint x="494.14213562373106" y="875.8578643762689" as="sourcePoint"/>
                        <mxPoint x="525.8578643762689" y="844.1421356237311" as="targetPoint"/>
                    </mxGeometry>
                </mxCell>
                <mxCell id="ZxbC2Xd3HvjLgOjPFKle-45" value="" style="endArrow=none;html=1;strokeColor=#000000;strokeWidth=2;entryX=0;entryY=0;entryDx=0;entryDy=0;exitX=1;exitY=1;exitDx=0;exitDy=0;" parent="CeSif-LkQ0VTNuqgXHJz-1" source="ZxbC2Xd3HvjLgOjPFKle-41" target="ZxbC2Xd3HvjLgOjPFKle-42" edge="1">
                    <mxGeometry width="50" height="50" relative="1" as="geometry">
                        <mxPoint x="504.14213562373106" y="885.8578643762689" as="sourcePoint"/>
                        <mxPoint x="535.8578643762689" y="854.1421356237311" as="targetPoint"/>
                    </mxGeometry>
                </mxCell>
                <mxCell id="ZxbC2Xd3HvjLgOjPFKle-47" value="&lt;font color=&quot;#000000&quot;&gt;successor&lt;/font&gt;" style="ellipse;whiteSpace=wrap;html=1;aspect=fixed;strokeColor=#006EAF;strokeWidth=2;fillColor=#1ba1e2;fontColor=#ffffff;" parent="CeSif-LkQ0VTNuqgXHJz-1" vertex="1">
                    <mxGeometry x="530" y="820" width="40" height="40" as="geometry"/>
                </mxCell>
                <mxCell id="ZxbC2Xd3HvjLgOjPFKle-49" value="" style="endArrow=classic;html=1;curved=1;strokeColor=#97D077;strokeWidth=2;dashed=1;entryX=0.5;entryY=1;entryDx=0;entryDy=0;edgeStyle=orthogonalEdgeStyle;exitX=1;exitY=1;exitDx=0;exitDy=0;" parent="CeSif-LkQ0VTNuqgXHJz-1" source="ZxbC2Xd3HvjLgOjPFKle-42" target="ZxbC2Xd3HvjLgOjPFKle-47" edge="1">
                    <mxGeometry width="50" height="50" relative="1" as="geometry">
                        <mxPoint x="550.042135623731" y="984.1421356237311" as="sourcePoint"/>
                        <mxPoint x="615.9" y="950" as="targetPoint"/>
                        <Array as="points">
                            <mxPoint x="524" y="980"/>
                            <mxPoint x="570" y="980"/>
                            <mxPoint x="570" y="930"/>
                            <mxPoint x="550" y="930"/>
                        </Array>
                    </mxGeometry>
                </mxCell>
                <mxCell id="wuCGo8jL0kPUdtsaMo9V-0" value="" style="endArrow=none;html=1;strokeColor=#000000;strokeWidth=2;exitX=1;exitY=0;exitDx=0;exitDy=0;dashed=1;" parent="CeSif-LkQ0VTNuqgXHJz-1" source="NnDIAgsHRutLFN9ROoSn-39" edge="1">
                    <mxGeometry width="50" height="50" relative="1" as="geometry">
                        <mxPoint x="149.14213562373106" y="324.14213562373106" as="sourcePoint"/>
                        <mxPoint x="165" y="260" as="targetPoint"/>
                    </mxGeometry>
                </mxCell>
                <mxCell id="wuCGo8jL0kPUdtsaMo9V-1" value="" style="endArrow=none;html=1;strokeColor=#000000;strokeWidth=2;dashed=1;entryX=0;entryY=0;entryDx=0;entryDy=0;" parent="CeSif-LkQ0VTNuqgXHJz-1" target="ZxbC2Xd3HvjLgOjPFKle-1" edge="1">
                    <mxGeometry width="50" height="50" relative="1" as="geometry">
                        <mxPoint x="225" y="280" as="sourcePoint"/>
                        <mxPoint x="175" y="270" as="targetPoint"/>
                    </mxGeometry>
                </mxCell>
                <mxCell id="wuCGo8jL0kPUdtsaMo9V-2" value="" style="endArrow=none;html=1;strokeColor=#000000;strokeWidth=2;dashed=1;entryX=1;entryY=0;entryDx=0;entryDy=0;" parent="CeSif-LkQ0VTNuqgXHJz-1" target="ZxbC2Xd3HvjLgOjPFKle-3" edge="1">
                    <mxGeometry width="50" height="50" relative="1" as="geometry">
                        <mxPoint x="425" y="260" as="sourcePoint"/>
                        <mxPoint x="185" y="280" as="targetPoint"/>
                    </mxGeometry>
                </mxCell>
                <mxCell id="wuCGo8jL0kPUdtsaMo9V-3" value="" style="endArrow=none;html=1;strokeColor=#000000;strokeWidth=2;dashed=1;entryX=0;entryY=0;entryDx=0;entryDy=0;" parent="CeSif-LkQ0VTNuqgXHJz-1" target="ZxbC2Xd3HvjLgOjPFKle-9" edge="1">
                    <mxGeometry width="50" height="50" relative="1" as="geometry">
                        <mxPoint x="485" y="280" as="sourcePoint"/>
                        <mxPoint x="195" y="290" as="targetPoint"/>
                    </mxGeometry>
                </mxCell>
                <mxCell id="wuCGo8jL0kPUdtsaMo9V-4" value="" style="endArrow=none;html=1;strokeColor=#000000;strokeWidth=2;exitX=1;exitY=0;exitDx=0;exitDy=0;dashed=1;" parent="CeSif-LkQ0VTNuqgXHJz-1" source="ZxbC2Xd3HvjLgOjPFKle-14" edge="1">
                    <mxGeometry width="50" height="50" relative="1" as="geometry">
                        <mxPoint x="184.14213562373106" y="285.85786437626894" as="sourcePoint"/>
                        <mxPoint x="170" y="780" as="targetPoint"/>
                    </mxGeometry>
                </mxCell>
                <mxCell id="wuCGo8jL0kPUdtsaMo9V-5" value="" style="endArrow=none;html=1;strokeColor=#000000;strokeWidth=2;dashed=1;entryX=0;entryY=0;entryDx=0;entryDy=0;" parent="CeSif-LkQ0VTNuqgXHJz-1" target="ZxbC2Xd3HvjLgOjPFKle-35" edge="1">
                    <mxGeometry width="50" height="50" relative="1" as="geometry">
                        <mxPoint x="230" y="800" as="sourcePoint"/>
                        <mxPoint x="180" y="790" as="targetPoint"/>
                    </mxGeometry>
                </mxCell>
                <mxCell id="wuCGo8jL0kPUdtsaMo9V-6" value="" style="endArrow=none;html=1;strokeColor=#000000;strokeWidth=2;dashed=1;entryX=1;entryY=0;entryDx=0;entryDy=0;" parent="CeSif-LkQ0VTNuqgXHJz-1" target="ZxbC2Xd3HvjLgOjPFKle-37" edge="1">
                    <mxGeometry width="50" height="50" relative="1" as="geometry">
                        <mxPoint x="450" y="780" as="sourcePoint"/>
                        <mxPoint x="190" y="800" as="targetPoint"/>
                    </mxGeometry>
                </mxCell>
                <mxCell id="wuCGo8jL0kPUdtsaMo9V-7" value="" style="endArrow=none;html=1;strokeColor=#000000;strokeWidth=2;dashed=1;entryX=0;entryY=0;entryDx=0;entryDy=0;" parent="CeSif-LkQ0VTNuqgXHJz-1" target="ZxbC2Xd3HvjLgOjPFKle-47" edge="1">
                    <mxGeometry width="50" height="50" relative="1" as="geometry">
                        <mxPoint x="510" y="800" as="sourcePoint"/>
                        <mxPoint x="200" y="810" as="targetPoint"/>
                    </mxGeometry>
                </mxCell>
                <mxCell id="xlwciculltp2IdPna9VX-0" value="" style="shape=link;html=1;dashed=1;strokeColor=#000000;" parent="CeSif-LkQ0VTNuqgXHJz-1" edge="1">
                    <mxGeometry width="50" height="50" relative="1" as="geometry">
                        <mxPoint x="540" y="240" as="sourcePoint"/>
                        <mxPoint x="100" y="240" as="targetPoint"/>
                    </mxGeometry>
                </mxCell>
                <mxCell id="xlwciculltp2IdPna9VX-1" value="" style="shape=link;html=1;dashed=1;strokeColor=#000000;" parent="CeSif-LkQ0VTNuqgXHJz-1" edge="1">
                    <mxGeometry width="50" height="50" relative="1" as="geometry">
                        <mxPoint x="540" y="470" as="sourcePoint"/>
                        <mxPoint x="100" y="470" as="targetPoint"/>
                    </mxGeometry>
                </mxCell>
                <mxCell id="xlwciculltp2IdPna9VX-2" value="" style="shape=link;html=1;dashed=1;strokeColor=#000000;" parent="CeSif-LkQ0VTNuqgXHJz-1" edge="1">
                    <mxGeometry width="50" height="50" relative="1" as="geometry">
                        <mxPoint x="540" y="760" as="sourcePoint"/>
                        <mxPoint x="100" y="760" as="targetPoint"/>
                    </mxGeometry>
                </mxCell>
                <mxCell id="-jdvKPgAEpi-Ebz0IswV-0" value="" style="endArrow=none;html=1;strokeColor=#000000;strokeWidth=2;dashed=1;exitX=1;exitY=1;exitDx=0;exitDy=0;" parent="CeSif-LkQ0VTNuqgXHJz-1" source="NnDIAgsHRutLFN9ROoSn-47" edge="1">
                    <mxGeometry width="50" height="50" relative="1" as="geometry">
                        <mxPoint x="235" y="290" as="sourcePoint"/>
                        <mxPoint x="90" y="450" as="targetPoint"/>
                    </mxGeometry>
                </mxCell>
                <mxCell id="-jdvKPgAEpi-Ebz0IswV-1" value="" style="endArrow=none;html=1;strokeColor=#000000;strokeWidth=2;dashed=1;exitX=1;exitY=1;exitDx=0;exitDy=0;" parent="CeSif-LkQ0VTNuqgXHJz-1" source="ZxbC2Xd3HvjLgOjPFKle-7" edge="1">
                    <mxGeometry width="50" height="50" relative="1" as="geometry">
                        <mxPoint x="120.85786437626894" y="444.14213562373106" as="sourcePoint"/>
                        <mxPoint x="420" y="390" as="targetPoint"/>
                    </mxGeometry>
                </mxCell>
                <mxCell id="87ZM7IHWR3Ef_eIAZPo8-0" value="" style="endArrow=classic;html=1;dashed=1;strokeColor=#97D077;strokeWidth=2;" edge="1" parent="CeSif-LkQ0VTNuqgXHJz-1">
                    <mxGeometry width="50" height="50" relative="1" as="geometry">
                        <mxPoint x="450" y="9.5" as="sourcePoint"/>
                        <mxPoint x="500" y="9.5" as="targetPoint"/>
                    </mxGeometry>
                </mxCell>
                <mxCell id="87ZM7IHWR3Ef_eIAZPo8-1" value="&lt;font color=&quot;#000000&quot; style=&quot;font-size: 14px&quot;&gt;&lt;b&gt;right thread&lt;/b&gt;&lt;/font&gt;" style="text;html=1;strokeColor=none;fillColor=none;align=center;verticalAlign=middle;whiteSpace=wrap;rounded=0;" vertex="1" parent="CeSif-LkQ0VTNuqgXHJz-1">
                    <mxGeometry x="500" width="90" height="20" as="geometry"/>
                </mxCell>
            </root>
        </mxGraphModel>
    </diagram>
    <diagram name="one_right_child" id="63Jo7blBp9nS1IMae8_x">
        <mxGraphModel dx="1770" dy="1010" grid="1" gridSize="10" guides="1" tooltips="1" connect="1" arrows="1" fold="1" page="1" pageScale="1" pageWidth="827" pageHeight="1169" math="0" shadow="0">
            <root>
                <mxCell id="lj5yNsDzuc8InLEuqnOJ-0"/>
                <mxCell id="lj5yNsDzuc8InLEuqnOJ-1" parent="lj5yNsDzuc8InLEuqnOJ-0"/>
                <mxCell id="t823QVXRnVJ4HDQR8JGY-4" value="" style="rounded=0;whiteSpace=wrap;html=1;fillColor=#FFFFFF;strokeColor=none;" parent="lj5yNsDzuc8InLEuqnOJ-1" vertex="1">
                    <mxGeometry x="80" y="20" width="400" height="240" as="geometry"/>
                </mxCell>
                <mxCell id="lj5yNsDzuc8InLEuqnOJ-2" value="&lt;font color=&quot;#000000&quot;&gt;parent&lt;/font&gt;" style="ellipse;whiteSpace=wrap;html=1;aspect=fixed;strokeColor=#006EAF;strokeWidth=2;fillColor=#1ba1e2;fontColor=#ffffff;" parent="lj5yNsDzuc8InLEuqnOJ-1" vertex="1">
                    <mxGeometry x="160" y="40" width="40" height="40" as="geometry"/>
                </mxCell>
                <mxCell id="lj5yNsDzuc8InLEuqnOJ-3" value="&lt;font color=&quot;#000000&quot;&gt;deleting&lt;/font&gt;" style="ellipse;whiteSpace=wrap;html=1;aspect=fixed;strokeColor=#FFB366;strokeWidth=2;fillColor=#1ba1e2;fontColor=#ffffff;" parent="lj5yNsDzuc8InLEuqnOJ-1" vertex="1">
                    <mxGeometry x="160" y="120" width="40" height="40" as="geometry"/>
                </mxCell>
                <mxCell id="lj5yNsDzuc8InLEuqnOJ-4" value="" style="endArrow=none;html=1;strokeColor=#000000;strokeWidth=2;exitX=0.5;exitY=1;exitDx=0;exitDy=0;entryX=0.5;entryY=0;entryDx=0;entryDy=0;" parent="lj5yNsDzuc8InLEuqnOJ-1" source="lj5yNsDzuc8InLEuqnOJ-2" target="lj5yNsDzuc8InLEuqnOJ-3" edge="1">
                    <mxGeometry width="50" height="50" relative="1" as="geometry">
                        <mxPoint x="185.85786437626894" y="114.14213562373106" as="sourcePoint"/>
                        <mxPoint x="154.14213562373106" y="145.85786437626894" as="targetPoint"/>
                    </mxGeometry>
                </mxCell>
                <mxCell id="lj5yNsDzuc8InLEuqnOJ-6" value="" style="endArrow=none;html=1;strokeColor=#000000;strokeWidth=2;entryX=1;entryY=1;entryDx=0;entryDy=0;exitX=0;exitY=1;exitDx=0;exitDy=0;" parent="lj5yNsDzuc8InLEuqnOJ-1" source="lj5yNsDzuc8InLEuqnOJ-15" target="lj5yNsDzuc8InLEuqnOJ-3" edge="1">
                    <mxGeometry width="50" height="50" relative="1" as="geometry">
                        <mxPoint x="134.14213562373106" y="185.85786437626894" as="sourcePoint"/>
                        <mxPoint x="204.14213562373106" y="135.85786437626894" as="targetPoint"/>
                    </mxGeometry>
                </mxCell>
                <mxCell id="lj5yNsDzuc8InLEuqnOJ-7" value="" style="html=1;shadow=0;dashed=0;align=center;verticalAlign=middle;shape=mxgraph.arrows2.arrow;dy=0.45;dx=30.5;notch=0;strokeColor=none;fillColor=#FF9933;" parent="lj5yNsDzuc8InLEuqnOJ-1" vertex="1">
                    <mxGeometry x="280" y="100" width="50" height="40" as="geometry"/>
                </mxCell>
                <mxCell id="lj5yNsDzuc8InLEuqnOJ-8" value="&lt;font color=&quot;#000000&quot;&gt;parent&lt;/font&gt;" style="ellipse;whiteSpace=wrap;html=1;aspect=fixed;strokeColor=#006EAF;strokeWidth=2;fillColor=#1ba1e2;fontColor=#ffffff;" parent="lj5yNsDzuc8InLEuqnOJ-1" vertex="1">
                    <mxGeometry x="400" y="40" width="40" height="40" as="geometry"/>
                </mxCell>
                <mxCell id="lj5yNsDzuc8InLEuqnOJ-9" value="" style="endArrow=none;html=1;strokeColor=#000000;strokeWidth=2;entryX=0.5;entryY=1;entryDx=0;entryDy=0;exitX=0.5;exitY=0;exitDx=0;exitDy=0;" parent="lj5yNsDzuc8InLEuqnOJ-1" source="lj5yNsDzuc8InLEuqnOJ-17" target="lj5yNsDzuc8InLEuqnOJ-8" edge="1">
                    <mxGeometry width="50" height="50" relative="1" as="geometry">
                        <mxPoint x="414.14213562373106" y="105.85786437626894" as="sourcePoint"/>
                        <mxPoint x="425.85786437626894" y="144.14213562373106" as="targetPoint"/>
                    </mxGeometry>
                </mxCell>
                <mxCell id="lj5yNsDzuc8InLEuqnOJ-15" value="&lt;font color=&quot;#000000&quot;&gt;replacing&lt;/font&gt;" style="ellipse;whiteSpace=wrap;html=1;aspect=fixed;strokeColor=#006EAF;strokeWidth=2;fillColor=#1ba1e2;fontColor=#ffffff;direction=south;" parent="lj5yNsDzuc8InLEuqnOJ-1" vertex="1">
                    <mxGeometry x="220" y="180" width="40" height="40" as="geometry"/>
                </mxCell>
                <mxCell id="lj5yNsDzuc8InLEuqnOJ-17" value="&lt;font color=&quot;#000000&quot;&gt;replacing&lt;/font&gt;" style="ellipse;whiteSpace=wrap;html=1;aspect=fixed;strokeColor=#006EAF;strokeWidth=2;fillColor=#1ba1e2;fontColor=#ffffff;" parent="lj5yNsDzuc8InLEuqnOJ-1" vertex="1">
                    <mxGeometry x="400" y="120" width="40" height="40" as="geometry"/>
                </mxCell>
                <mxCell id="ibYAhiEnzefZ6Hyl_Nf3-0" value="" style="endArrow=none;html=1;strokeColor=#000000;strokeWidth=2;entryX=0;entryY=1;entryDx=0;entryDy=0;exitX=1;exitY=0;exitDx=0;exitDy=0;" parent="lj5yNsDzuc8InLEuqnOJ-1" source="ibYAhiEnzefZ6Hyl_Nf3-1" target="lj5yNsDzuc8InLEuqnOJ-3" edge="1">
                    <mxGeometry width="50" height="50" relative="1" as="geometry">
                        <mxPoint x="160" y="280" as="sourcePoint"/>
                        <mxPoint x="185.85786437626894" y="254.14213562373106" as="targetPoint"/>
                    </mxGeometry>
                </mxCell>
                <mxCell id="ibYAhiEnzefZ6Hyl_Nf3-1" value="&lt;font color=&quot;#000000&quot;&gt;None&lt;/font&gt;" style="ellipse;whiteSpace=wrap;html=1;aspect=fixed;strokeColor=#006EAF;strokeWidth=2;fillColor=none;fontColor=#ffffff;dashed=1;" parent="lj5yNsDzuc8InLEuqnOJ-1" vertex="1">
                    <mxGeometry x="100" y="180" width="40" height="40" as="geometry"/>
                </mxCell>
                <mxCell id="t823QVXRnVJ4HDQR8JGY-0" value="" style="endArrow=none;html=1;strokeColor=#000000;strokeWidth=2;dashed=1;entryX=1;entryY=1;entryDx=0;entryDy=0;" parent="lj5yNsDzuc8InLEuqnOJ-1" target="lj5yNsDzuc8InLEuqnOJ-15" edge="1">
                    <mxGeometry width="50" height="50" relative="1" as="geometry">
                        <mxPoint x="200" y="240" as="sourcePoint"/>
                        <mxPoint x="170" y="780" as="targetPoint"/>
                    </mxGeometry>
                </mxCell>
                <mxCell id="t823QVXRnVJ4HDQR8JGY-1" value="" style="endArrow=none;html=1;strokeColor=#000000;strokeWidth=2;dashed=1;entryX=1;entryY=0;entryDx=0;entryDy=0;" parent="lj5yNsDzuc8InLEuqnOJ-1" target="lj5yNsDzuc8InLEuqnOJ-15" edge="1">
                    <mxGeometry width="50" height="50" relative="1" as="geometry">
                        <mxPoint x="280" y="240" as="sourcePoint"/>
                        <mxPoint x="235.85786437626894" y="224.14213562373106" as="targetPoint"/>
                    </mxGeometry>
                </mxCell>
                <mxCell id="t823QVXRnVJ4HDQR8JGY-2" value="" style="endArrow=none;html=1;strokeColor=#000000;strokeWidth=2;dashed=1;entryX=0;entryY=1;entryDx=0;entryDy=0;" parent="lj5yNsDzuc8InLEuqnOJ-1" target="lj5yNsDzuc8InLEuqnOJ-17" edge="1">
                    <mxGeometry width="50" height="50" relative="1" as="geometry">
                        <mxPoint x="380" y="180" as="sourcePoint"/>
                        <mxPoint x="245.85786437626894" y="234.14213562373106" as="targetPoint"/>
                    </mxGeometry>
                </mxCell>
                <mxCell id="t823QVXRnVJ4HDQR8JGY-3" value="" style="endArrow=none;html=1;strokeColor=#000000;strokeWidth=2;dashed=1;entryX=1;entryY=1;entryDx=0;entryDy=0;" parent="lj5yNsDzuc8InLEuqnOJ-1" target="lj5yNsDzuc8InLEuqnOJ-17" edge="1">
                    <mxGeometry width="50" height="50" relative="1" as="geometry">
                        <mxPoint x="460" y="180" as="sourcePoint"/>
                        <mxPoint x="255.85786437626894" y="244.14213562373106" as="targetPoint"/>
                    </mxGeometry>
                </mxCell>
            </root>
        </mxGraphModel>
    </diagram>
    <diagram name="two_children_1" id="T4hNOZwwaxl48vkc142n">
        <mxGraphModel dx="1770" dy="2179" grid="1" gridSize="10" guides="1" tooltips="1" connect="1" arrows="1" fold="1" page="1" pageScale="1" pageWidth="827" pageHeight="1169" math="0" shadow="0">
            <root>
                <mxCell id="INUMBIibE78lqg2VG0Ei-0"/>
                <mxCell id="INUMBIibE78lqg2VG0Ei-1" parent="INUMBIibE78lqg2VG0Ei-0"/>
                <mxCell id="y0FH9ofdbALPQEzj8G43-4" value="" style="rounded=0;whiteSpace=wrap;html=1;fillColor=#FFFFFF;strokeColor=none;" parent="INUMBIibE78lqg2VG0Ei-1" vertex="1">
                    <mxGeometry x="20" y="-20" width="580" height="340" as="geometry"/>
                </mxCell>
                <mxCell id="INUMBIibE78lqg2VG0Ei-2" value="&lt;font color=&quot;#000000&quot;&gt;parent&lt;/font&gt;" style="ellipse;whiteSpace=wrap;html=1;aspect=fixed;strokeColor=#006EAF;strokeWidth=2;fillColor=#1ba1e2;fontColor=#ffffff;" parent="INUMBIibE78lqg2VG0Ei-1" vertex="1">
                    <mxGeometry x="160" y="40" width="40" height="40" as="geometry"/>
                </mxCell>
                <mxCell id="INUMBIibE78lqg2VG0Ei-3" value="&lt;font color=&quot;#000000&quot;&gt;deleting&lt;/font&gt;" style="ellipse;whiteSpace=wrap;html=1;aspect=fixed;strokeColor=#FFB366;strokeWidth=2;fillColor=#1ba1e2;fontColor=#ffffff;" parent="INUMBIibE78lqg2VG0Ei-1" vertex="1">
                    <mxGeometry x="160" y="120" width="40" height="40" as="geometry"/>
                </mxCell>
                <mxCell id="INUMBIibE78lqg2VG0Ei-4" value="" style="endArrow=none;html=1;strokeColor=#000000;strokeWidth=2;exitX=0.5;exitY=1;exitDx=0;exitDy=0;entryX=0.5;entryY=0;entryDx=0;entryDy=0;" parent="INUMBIibE78lqg2VG0Ei-1" source="INUMBIibE78lqg2VG0Ei-2" target="INUMBIibE78lqg2VG0Ei-3" edge="1">
                    <mxGeometry width="50" height="50" relative="1" as="geometry">
                        <mxPoint x="185.85786437626894" y="114.14213562373106" as="sourcePoint"/>
                        <mxPoint x="154.14213562373106" y="145.85786437626894" as="targetPoint"/>
                    </mxGeometry>
                </mxCell>
                <mxCell id="INUMBIibE78lqg2VG0Ei-5" value="" style="endArrow=none;html=1;strokeColor=#000000;strokeWidth=2;entryX=1;entryY=1;entryDx=0;entryDy=0;exitX=0;exitY=1;exitDx=0;exitDy=0;" parent="INUMBIibE78lqg2VG0Ei-1" source="INUMBIibE78lqg2VG0Ei-9" target="INUMBIibE78lqg2VG0Ei-3" edge="1">
                    <mxGeometry width="50" height="50" relative="1" as="geometry">
                        <mxPoint x="134.14213562373106" y="185.85786437626894" as="sourcePoint"/>
                        <mxPoint x="204.14213562373106" y="135.85786437626894" as="targetPoint"/>
                    </mxGeometry>
                </mxCell>
                <mxCell id="INUMBIibE78lqg2VG0Ei-6" value="" style="html=1;shadow=0;dashed=0;align=center;verticalAlign=middle;shape=mxgraph.arrows2.arrow;dy=0.45;dx=30.5;notch=0;strokeColor=none;fillColor=#FF9933;" parent="INUMBIibE78lqg2VG0Ei-1" vertex="1">
                    <mxGeometry x="300" y="100" width="50" height="40" as="geometry"/>
                </mxCell>
                <mxCell id="INUMBIibE78lqg2VG0Ei-9" value="&lt;font color=&quot;#000000&quot;&gt;replacing&lt;/font&gt;" style="ellipse;whiteSpace=wrap;html=1;aspect=fixed;strokeColor=#006EAF;strokeWidth=2;fillColor=#1ba1e2;fontColor=#ffffff;direction=south;" parent="INUMBIibE78lqg2VG0Ei-1" vertex="1">
                    <mxGeometry x="240" y="180" width="40" height="40" as="geometry"/>
                </mxCell>
                <mxCell id="INUMBIibE78lqg2VG0Ei-11" value="" style="endArrow=none;html=1;strokeColor=#000000;strokeWidth=2;entryX=0;entryY=1;entryDx=0;entryDy=0;exitX=0;exitY=0;exitDx=0;exitDy=0;" parent="INUMBIibE78lqg2VG0Ei-1" source="INUMBIibE78lqg2VG0Ei-13" target="INUMBIibE78lqg2VG0Ei-3" edge="1">
                    <mxGeometry width="50" height="50" relative="1" as="geometry">
                        <mxPoint x="134.14213562373106" y="185.85786437626894" as="sourcePoint"/>
                        <mxPoint x="185.85786437626894" y="254.14213562373106" as="targetPoint"/>
                    </mxGeometry>
                </mxCell>
                <mxCell id="INUMBIibE78lqg2VG0Ei-13" value="" style="ellipse;whiteSpace=wrap;html=1;aspect=fixed;strokeColor=#006EAF;strokeWidth=2;fillColor=#1ba1e2;fontColor=#ffffff;direction=south;" parent="INUMBIibE78lqg2VG0Ei-1" vertex="1">
                    <mxGeometry x="80" y="180" width="40" height="40" as="geometry"/>
                </mxCell>
                <mxCell id="tW98lPUl4VGbRAjVhWgx-0" value="" style="ellipse;whiteSpace=wrap;html=1;aspect=fixed;strokeColor=#006EAF;strokeWidth=2;fillColor=#1ba1e2;fontColor=#ffffff;direction=south;" parent="INUMBIibE78lqg2VG0Ei-1" vertex="1">
                    <mxGeometry x="40" y="240" width="40" height="40" as="geometry"/>
                </mxCell>
                <mxCell id="tW98lPUl4VGbRAjVhWgx-1" value="" style="ellipse;whiteSpace=wrap;html=1;aspect=fixed;strokeColor=#006EAF;strokeWidth=2;fillColor=#1ba1e2;fontColor=#ffffff;direction=south;" parent="INUMBIibE78lqg2VG0Ei-1" vertex="1">
                    <mxGeometry x="120" y="240" width="40" height="40" as="geometry"/>
                </mxCell>
                <mxCell id="tW98lPUl4VGbRAjVhWgx-2" value="" style="ellipse;whiteSpace=wrap;html=1;aspect=fixed;strokeColor=#006EAF;strokeWidth=2;fillColor=#1ba1e2;fontColor=#ffffff;direction=south;" parent="INUMBIibE78lqg2VG0Ei-1" vertex="1">
                    <mxGeometry x="280" y="240" width="40" height="40" as="geometry"/>
                </mxCell>
                <mxCell id="tW98lPUl4VGbRAjVhWgx-3" value="" style="endArrow=none;html=1;strokeColor=#000000;strokeWidth=2;entryX=0;entryY=1;entryDx=0;entryDy=0;exitX=1;exitY=0;exitDx=0;exitDy=0;" parent="INUMBIibE78lqg2VG0Ei-1" source="INUMBIibE78lqg2VG0Ei-9" target="tW98lPUl4VGbRAjVhWgx-2" edge="1">
                    <mxGeometry width="50" height="50" relative="1" as="geometry">
                        <mxPoint x="235.85786437626894" y="195.85786437626894" as="sourcePoint"/>
                        <mxPoint x="204.14213562373106" y="164.14213562373106" as="targetPoint"/>
                    </mxGeometry>
                </mxCell>
                <mxCell id="tW98lPUl4VGbRAjVhWgx-4" value="" style="endArrow=none;html=1;strokeColor=#000000;strokeWidth=2;entryX=0;entryY=0;entryDx=0;entryDy=0;exitX=1;exitY=1;exitDx=0;exitDy=0;" parent="INUMBIibE78lqg2VG0Ei-1" source="INUMBIibE78lqg2VG0Ei-13" target="tW98lPUl4VGbRAjVhWgx-0" edge="1">
                    <mxGeometry width="50" height="50" relative="1" as="geometry">
                        <mxPoint x="264.14213562373106" y="224.14213562373106" as="sourcePoint"/>
                        <mxPoint x="295.85786437626894" y="255.85786437626894" as="targetPoint"/>
                    </mxGeometry>
                </mxCell>
                <mxCell id="tW98lPUl4VGbRAjVhWgx-5" value="" style="endArrow=none;html=1;strokeColor=#000000;strokeWidth=2;entryX=0;entryY=1;entryDx=0;entryDy=0;exitX=1;exitY=0;exitDx=0;exitDy=0;" parent="INUMBIibE78lqg2VG0Ei-1" source="INUMBIibE78lqg2VG0Ei-13" target="tW98lPUl4VGbRAjVhWgx-1" edge="1">
                    <mxGeometry width="50" height="50" relative="1" as="geometry">
                        <mxPoint x="274.14213562373106" y="234.14213562373106" as="sourcePoint"/>
                        <mxPoint x="305.85786437626894" y="265.85786437626894" as="targetPoint"/>
                    </mxGeometry>
                </mxCell>
                <mxCell id="O1BSnCq4csZ0i8oVlTca-0" value="" style="endArrow=classic;html=1;curved=1;strokeColor=#97D077;strokeWidth=2;dashed=1;exitX=1;exitY=0;exitDx=0;exitDy=0;entryX=0.5;entryY=1;entryDx=0;entryDy=0;edgeStyle=orthogonalEdgeStyle;" parent="INUMBIibE78lqg2VG0Ei-1" source="tW98lPUl4VGbRAjVhWgx-1" target="INUMBIibE78lqg2VG0Ei-3" edge="1">
                    <mxGeometry width="50" height="50" relative="1" as="geometry">
                        <mxPoint x="211.31999999999994" y="141.68000000000006" as="sourcePoint"/>
                        <mxPoint x="260" y="80" as="targetPoint"/>
                        <Array as="points">
                            <mxPoint x="154" y="290"/>
                            <mxPoint x="180" y="290"/>
                        </Array>
                    </mxGeometry>
                </mxCell>
                <mxCell id="O1BSnCq4csZ0i8oVlTca-1" value="&lt;font color=&quot;#000000&quot;&gt;parent&lt;/font&gt;" style="ellipse;whiteSpace=wrap;html=1;aspect=fixed;strokeColor=#006EAF;strokeWidth=2;fillColor=#1ba1e2;fontColor=#ffffff;" parent="INUMBIibE78lqg2VG0Ei-1" vertex="1">
                    <mxGeometry x="480" y="40" width="40" height="40" as="geometry"/>
                </mxCell>
                <mxCell id="O1BSnCq4csZ0i8oVlTca-3" value="" style="endArrow=none;html=1;strokeColor=#000000;strokeWidth=2;exitX=0.5;exitY=1;exitDx=0;exitDy=0;entryX=0;entryY=0.5;entryDx=0;entryDy=0;" parent="INUMBIibE78lqg2VG0Ei-1" source="O1BSnCq4csZ0i8oVlTca-1" target="O1BSnCq4csZ0i8oVlTca-6" edge="1">
                    <mxGeometry width="50" height="50" relative="1" as="geometry">
                        <mxPoint x="505.85786437626894" y="114.14213562373106" as="sourcePoint"/>
                        <mxPoint x="500" y="120" as="targetPoint"/>
                    </mxGeometry>
                </mxCell>
                <mxCell id="O1BSnCq4csZ0i8oVlTca-6" value="&lt;font color=&quot;#000000&quot;&gt;replacing&lt;/font&gt;" style="ellipse;whiteSpace=wrap;html=1;aspect=fixed;strokeColor=#006EAF;strokeWidth=2;fillColor=#1ba1e2;fontColor=#ffffff;direction=south;" parent="INUMBIibE78lqg2VG0Ei-1" vertex="1">
                    <mxGeometry x="480" y="120" width="40" height="40" as="geometry"/>
                </mxCell>
                <mxCell id="O1BSnCq4csZ0i8oVlTca-7" value="" style="endArrow=none;html=1;strokeColor=#000000;strokeWidth=2;entryX=1;entryY=1;entryDx=0;entryDy=0;exitX=1;exitY=0;exitDx=0;exitDy=0;" parent="INUMBIibE78lqg2VG0Ei-1" target="O1BSnCq4csZ0i8oVlTca-6" edge="1">
                    <mxGeometry width="50" height="50" relative="1" as="geometry">
                        <mxPoint x="454.14213562373106" y="185.85786437626894" as="sourcePoint"/>
                        <mxPoint x="485.85786437626894" y="154.14213562373106" as="targetPoint"/>
                    </mxGeometry>
                </mxCell>
                <mxCell id="O1BSnCq4csZ0i8oVlTca-8" value="" style="ellipse;whiteSpace=wrap;html=1;aspect=fixed;strokeColor=#006EAF;strokeWidth=2;fillColor=#1ba1e2;fontColor=#ffffff;direction=south;" parent="INUMBIibE78lqg2VG0Ei-1" vertex="1">
                    <mxGeometry x="420" y="180" width="40" height="40" as="geometry"/>
                </mxCell>
                <mxCell id="O1BSnCq4csZ0i8oVlTca-9" value="" style="ellipse;whiteSpace=wrap;html=1;aspect=fixed;strokeColor=#006EAF;strokeWidth=2;fillColor=#1ba1e2;fontColor=#ffffff;direction=south;" parent="INUMBIibE78lqg2VG0Ei-1" vertex="1">
                    <mxGeometry x="380" y="240" width="40" height="40" as="geometry"/>
                </mxCell>
                <mxCell id="O1BSnCq4csZ0i8oVlTca-10" value="" style="ellipse;whiteSpace=wrap;html=1;aspect=fixed;strokeColor=#006EAF;strokeWidth=2;fillColor=#1ba1e2;fontColor=#ffffff;direction=south;" parent="INUMBIibE78lqg2VG0Ei-1" vertex="1">
                    <mxGeometry x="460" y="240" width="40" height="40" as="geometry"/>
                </mxCell>
                <mxCell id="O1BSnCq4csZ0i8oVlTca-11" value="" style="ellipse;whiteSpace=wrap;html=1;aspect=fixed;strokeColor=#006EAF;strokeWidth=2;fillColor=#1ba1e2;fontColor=#ffffff;direction=south;" parent="INUMBIibE78lqg2VG0Ei-1" vertex="1">
                    <mxGeometry x="540" y="180" width="40" height="40" as="geometry"/>
                </mxCell>
                <mxCell id="O1BSnCq4csZ0i8oVlTca-12" value="" style="endArrow=none;html=1;strokeColor=#000000;strokeWidth=2;entryX=0;entryY=1;entryDx=0;entryDy=0;exitX=1;exitY=0;exitDx=0;exitDy=0;" parent="INUMBIibE78lqg2VG0Ei-1" source="O1BSnCq4csZ0i8oVlTca-6" target="O1BSnCq4csZ0i8oVlTca-11" edge="1">
                    <mxGeometry width="50" height="50" relative="1" as="geometry">
                        <mxPoint x="555.8578643762689" y="195.85786437626894" as="sourcePoint"/>
                        <mxPoint x="524.1421356237311" y="164.14213562373106" as="targetPoint"/>
                    </mxGeometry>
                </mxCell>
                <mxCell id="O1BSnCq4csZ0i8oVlTca-13" value="" style="endArrow=none;html=1;strokeColor=#000000;strokeWidth=2;entryX=0;entryY=0;entryDx=0;entryDy=0;exitX=1;exitY=1;exitDx=0;exitDy=0;" parent="INUMBIibE78lqg2VG0Ei-1" source="O1BSnCq4csZ0i8oVlTca-8" target="O1BSnCq4csZ0i8oVlTca-9" edge="1">
                    <mxGeometry width="50" height="50" relative="1" as="geometry">
                        <mxPoint x="584.1421356237311" y="224.14213562373106" as="sourcePoint"/>
                        <mxPoint x="615.8578643762689" y="255.85786437626894" as="targetPoint"/>
                    </mxGeometry>
                </mxCell>
                <mxCell id="O1BSnCq4csZ0i8oVlTca-14" value="" style="endArrow=none;html=1;strokeColor=#000000;strokeWidth=2;entryX=0;entryY=1;entryDx=0;entryDy=0;exitX=1;exitY=0;exitDx=0;exitDy=0;" parent="INUMBIibE78lqg2VG0Ei-1" source="O1BSnCq4csZ0i8oVlTca-8" target="O1BSnCq4csZ0i8oVlTca-10" edge="1">
                    <mxGeometry width="50" height="50" relative="1" as="geometry">
                        <mxPoint x="594.1421356237311" y="234.14213562373106" as="sourcePoint"/>
                        <mxPoint x="625.8578643762689" y="265.85786437626894" as="targetPoint"/>
                    </mxGeometry>
                </mxCell>
                <mxCell id="O1BSnCq4csZ0i8oVlTca-15" value="" style="endArrow=classic;html=1;curved=1;strokeColor=#97D077;strokeWidth=2;dashed=1;exitX=1;exitY=0;exitDx=0;exitDy=0;entryX=1;entryY=0.5;entryDx=0;entryDy=0;edgeStyle=orthogonalEdgeStyle;" parent="INUMBIibE78lqg2VG0Ei-1" source="O1BSnCq4csZ0i8oVlTca-10" target="O1BSnCq4csZ0i8oVlTca-6" edge="1">
                    <mxGeometry width="50" height="50" relative="1" as="geometry">
                        <mxPoint x="531.3199999999999" y="141.68000000000006" as="sourcePoint"/>
                        <mxPoint x="500" y="160" as="targetPoint"/>
                        <Array as="points">
                            <mxPoint x="520" y="274"/>
                            <mxPoint x="520" y="240"/>
                            <mxPoint x="500" y="240"/>
                        </Array>
                    </mxGeometry>
                </mxCell>
                <mxCell id="y0FH9ofdbALPQEzj8G43-0" value="" style="endArrow=none;html=1;strokeColor=#000000;strokeWidth=2;exitX=1;exitY=1;exitDx=0;exitDy=0;dashed=1;" parent="INUMBIibE78lqg2VG0Ei-1" edge="1">
                    <mxGeometry width="50" height="50" relative="1" as="geometry">
                        <mxPoint x="285.85786437626894" y="274.14213562373106" as="sourcePoint"/>
                        <mxPoint x="260" y="300" as="targetPoint"/>
                    </mxGeometry>
                </mxCell>
                <mxCell id="y0FH9ofdbALPQEzj8G43-1" value="" style="endArrow=none;html=1;strokeColor=#000000;strokeWidth=2;exitX=1;exitY=0;exitDx=0;exitDy=0;dashed=1;" parent="INUMBIibE78lqg2VG0Ei-1" source="tW98lPUl4VGbRAjVhWgx-2" edge="1">
                    <mxGeometry width="50" height="50" relative="1" as="geometry">
                        <mxPoint x="295.85786437626894" y="284.14213562373106" as="sourcePoint"/>
                        <mxPoint x="340" y="300" as="targetPoint"/>
                    </mxGeometry>
                </mxCell>
                <mxCell id="y0FH9ofdbALPQEzj8G43-2" value="" style="endArrow=none;html=1;strokeColor=#000000;strokeWidth=2;exitX=1;exitY=1;exitDx=0;exitDy=0;dashed=1;" parent="INUMBIibE78lqg2VG0Ei-1" source="O1BSnCq4csZ0i8oVlTca-11" edge="1">
                    <mxGeometry width="50" height="50" relative="1" as="geometry">
                        <mxPoint x="305.85786437626894" y="294.14213562373106" as="sourcePoint"/>
                        <mxPoint x="530" y="230" as="targetPoint"/>
                    </mxGeometry>
                </mxCell>
                <mxCell id="y0FH9ofdbALPQEzj8G43-3" value="" style="endArrow=none;html=1;strokeColor=#000000;strokeWidth=2;exitX=1;exitY=0;exitDx=0;exitDy=0;dashed=1;" parent="INUMBIibE78lqg2VG0Ei-1" source="O1BSnCq4csZ0i8oVlTca-11" edge="1">
                    <mxGeometry width="50" height="50" relative="1" as="geometry">
                        <mxPoint x="315.85786437626894" y="304.14213562373106" as="sourcePoint"/>
                        <mxPoint x="590" y="230" as="targetPoint"/>
                    </mxGeometry>
                </mxCell>
                <mxCell id="TRnqJSwXVWyefp7avwE3-0" value="&lt;font color=&quot;#000000&quot;&gt;None&lt;/font&gt;" style="ellipse;whiteSpace=wrap;html=1;aspect=fixed;strokeColor=#006EAF;strokeWidth=2;fillColor=none;fontColor=#ffffff;dashed=1;" parent="INUMBIibE78lqg2VG0Ei-1" vertex="1">
                    <mxGeometry x="200" y="240" width="40" height="40" as="geometry"/>
                </mxCell>
                <mxCell id="TRnqJSwXVWyefp7avwE3-1" value="" style="endArrow=none;html=1;strokeColor=#000000;strokeWidth=2;entryX=1;entryY=0;entryDx=0;entryDy=0;exitX=1;exitY=1;exitDx=0;exitDy=0;" parent="INUMBIibE78lqg2VG0Ei-1" source="INUMBIibE78lqg2VG0Ei-9" target="TRnqJSwXVWyefp7avwE3-0" edge="1">
                    <mxGeometry width="50" height="50" relative="1" as="geometry">
                        <mxPoint x="264.14213562373106" y="224.14213562373106" as="sourcePoint"/>
                        <mxPoint x="295.85786437626894" y="255.85786437626894" as="targetPoint"/>
                    </mxGeometry>
                </mxCell>
                <mxCell id="fGnrmzeX6WkBFibWuIzJ-0" value="" style="endArrow=classic;html=1;dashed=1;strokeColor=#97D077;strokeWidth=2;" edge="1" parent="INUMBIibE78lqg2VG0Ei-1">
                    <mxGeometry width="50" height="50" relative="1" as="geometry">
                        <mxPoint x="450" y="-0.5" as="sourcePoint"/>
                        <mxPoint x="500" y="-0.5" as="targetPoint"/>
                    </mxGeometry>
                </mxCell>
                <mxCell id="fGnrmzeX6WkBFibWuIzJ-1" value="&lt;font color=&quot;#000000&quot; style=&quot;font-size: 14px&quot;&gt;&lt;b&gt;right thread&lt;/b&gt;&lt;/font&gt;" style="text;html=1;strokeColor=none;fillColor=none;align=center;verticalAlign=middle;whiteSpace=wrap;rounded=0;" vertex="1" parent="INUMBIibE78lqg2VG0Ei-1">
                    <mxGeometry x="500" y="-10" width="90" height="20" as="geometry"/>
                </mxCell>
            </root>
        </mxGraphModel>
    </diagram>
    <diagram name="two_children_2" id="59NTOwrulGPqqVqYM4Gm">
        <mxGraphModel dx="1770" dy="2179" grid="1" gridSize="10" guides="1" tooltips="1" connect="1" arrows="1" fold="1" page="1" pageScale="1" pageWidth="827" pageHeight="1169" math="0" shadow="0">
            <root>
                <mxCell id="sQ6tridFzlUKtPEMu8lY-0"/>
                <mxCell id="sQ6tridFzlUKtPEMu8lY-1" parent="sQ6tridFzlUKtPEMu8lY-0"/>
                <mxCell id="RmYOSiLJVOPuFYbotAuV-0" value="" style="rounded=0;whiteSpace=wrap;html=1;fillColor=#FFFFFF;strokeColor=none;" parent="sQ6tridFzlUKtPEMu8lY-1" vertex="1">
                    <mxGeometry x="20" y="-20" width="520" height="1120" as="geometry"/>
                </mxCell>
                <mxCell id="sQ6tridFzlUKtPEMu8lY-2" value="&lt;font color=&quot;#000000&quot;&gt;parent&lt;/font&gt;" style="ellipse;whiteSpace=wrap;html=1;aspect=fixed;strokeColor=#006EAF;strokeWidth=2;fillColor=#1ba1e2;fontColor=#ffffff;" parent="sQ6tridFzlUKtPEMu8lY-1" vertex="1">
                    <mxGeometry x="240" y="40" width="40" height="40" as="geometry"/>
                </mxCell>
                <mxCell id="sQ6tridFzlUKtPEMu8lY-3" value="&lt;font color=&quot;#000000&quot;&gt;deleting&lt;/font&gt;" style="ellipse;whiteSpace=wrap;html=1;aspect=fixed;strokeColor=#FFB366;strokeWidth=2;fillColor=#1ba1e2;fontColor=#ffffff;" parent="sQ6tridFzlUKtPEMu8lY-1" vertex="1">
                    <mxGeometry x="240" y="120" width="40" height="40" as="geometry"/>
                </mxCell>
                <mxCell id="sQ6tridFzlUKtPEMu8lY-4" value="" style="endArrow=none;html=1;strokeColor=#000000;strokeWidth=2;exitX=0.5;exitY=1;exitDx=0;exitDy=0;entryX=0.5;entryY=0;entryDx=0;entryDy=0;" parent="sQ6tridFzlUKtPEMu8lY-1" source="sQ6tridFzlUKtPEMu8lY-2" target="sQ6tridFzlUKtPEMu8lY-3" edge="1">
                    <mxGeometry width="50" height="50" relative="1" as="geometry">
                        <mxPoint x="185.85786437626894" y="114.14213562373106" as="sourcePoint"/>
                        <mxPoint x="154.14213562373106" y="145.85786437626894" as="targetPoint"/>
                    </mxGeometry>
                </mxCell>
                <mxCell id="sQ6tridFzlUKtPEMu8lY-5" value="" style="endArrow=none;html=1;strokeColor=#000000;strokeWidth=2;entryX=1;entryY=1;entryDx=0;entryDy=0;exitX=0;exitY=1;exitDx=0;exitDy=0;" parent="sQ6tridFzlUKtPEMu8lY-1" source="sQ6tridFzlUKtPEMu8lY-7" target="sQ6tridFzlUKtPEMu8lY-3" edge="1">
                    <mxGeometry width="50" height="50" relative="1" as="geometry">
                        <mxPoint x="134.14213562373106" y="185.85786437626894" as="sourcePoint"/>
                        <mxPoint x="204.14213562373106" y="135.85786437626894" as="targetPoint"/>
                    </mxGeometry>
                </mxCell>
                <mxCell id="sQ6tridFzlUKtPEMu8lY-6" value="" style="html=1;shadow=0;dashed=0;align=center;verticalAlign=middle;shape=mxgraph.arrows2.arrow;dy=0.45;dx=30.5;notch=0;strokeColor=none;fillColor=#FF9933;rotation=90;" parent="sQ6tridFzlUKtPEMu8lY-1" vertex="1">
                    <mxGeometry x="235" y="370" width="50" height="40" as="geometry"/>
                </mxCell>
                <mxCell id="sQ6tridFzlUKtPEMu8lY-7" value="" style="ellipse;whiteSpace=wrap;html=1;aspect=fixed;strokeColor=#006EAF;strokeWidth=2;fillColor=#1ba1e2;fontColor=#ffffff;direction=south;" parent="sQ6tridFzlUKtPEMu8lY-1" vertex="1">
                    <mxGeometry x="380" y="180" width="40" height="40" as="geometry"/>
                </mxCell>
                <mxCell id="sQ6tridFzlUKtPEMu8lY-8" value="" style="endArrow=none;html=1;strokeColor=#000000;strokeWidth=2;entryX=0;entryY=1;entryDx=0;entryDy=0;exitX=1;exitY=0;exitDx=0;exitDy=0;" parent="sQ6tridFzlUKtPEMu8lY-1" target="sQ6tridFzlUKtPEMu8lY-3" edge="1">
                    <mxGeometry width="50" height="50" relative="1" as="geometry">
                        <mxPoint x="134.14213562373106" y="185.85786437626894" as="sourcePoint"/>
                        <mxPoint x="185.85786437626894" y="254.14213562373106" as="targetPoint"/>
                    </mxGeometry>
                </mxCell>
                <mxCell id="sQ6tridFzlUKtPEMu8lY-9" value="" style="ellipse;whiteSpace=wrap;html=1;aspect=fixed;strokeColor=#006EAF;strokeWidth=2;fillColor=#1ba1e2;fontColor=#ffffff;direction=south;" parent="sQ6tridFzlUKtPEMu8lY-1" vertex="1">
                    <mxGeometry x="100" y="180" width="40" height="40" as="geometry"/>
                </mxCell>
                <mxCell id="sQ6tridFzlUKtPEMu8lY-10" value="" style="ellipse;whiteSpace=wrap;html=1;aspect=fixed;strokeColor=#006EAF;strokeWidth=2;fillColor=#1ba1e2;fontColor=#ffffff;direction=south;" parent="sQ6tridFzlUKtPEMu8lY-1" vertex="1">
                    <mxGeometry x="40" y="240" width="40" height="40" as="geometry"/>
                </mxCell>
                <mxCell id="sQ6tridFzlUKtPEMu8lY-11" value="" style="ellipse;whiteSpace=wrap;html=1;aspect=fixed;strokeColor=#006EAF;strokeWidth=2;fillColor=#1ba1e2;fontColor=#ffffff;direction=south;" parent="sQ6tridFzlUKtPEMu8lY-1" vertex="1">
                    <mxGeometry x="160" y="240" width="40" height="40" as="geometry"/>
                </mxCell>
                <mxCell id="sQ6tridFzlUKtPEMu8lY-12" value="" style="ellipse;whiteSpace=wrap;html=1;aspect=fixed;strokeColor=#006EAF;strokeWidth=2;fillColor=#1ba1e2;fontColor=#ffffff;direction=south;" parent="sQ6tridFzlUKtPEMu8lY-1" vertex="1">
                    <mxGeometry x="440" y="240" width="40" height="40" as="geometry"/>
                </mxCell>
                <mxCell id="sQ6tridFzlUKtPEMu8lY-13" value="" style="endArrow=none;html=1;strokeColor=#000000;strokeWidth=2;entryX=0;entryY=1;entryDx=0;entryDy=0;exitX=1;exitY=0;exitDx=0;exitDy=0;" parent="sQ6tridFzlUKtPEMu8lY-1" source="sQ6tridFzlUKtPEMu8lY-7" target="sQ6tridFzlUKtPEMu8lY-12" edge="1">
                    <mxGeometry width="50" height="50" relative="1" as="geometry">
                        <mxPoint x="235.85786437626894" y="195.85786437626894" as="sourcePoint"/>
                        <mxPoint x="204.14213562373106" y="164.14213562373106" as="targetPoint"/>
                    </mxGeometry>
                </mxCell>
                <mxCell id="sQ6tridFzlUKtPEMu8lY-14" value="" style="endArrow=none;html=1;strokeColor=#000000;strokeWidth=2;entryX=0;entryY=0;entryDx=0;entryDy=0;exitX=1;exitY=1;exitDx=0;exitDy=0;" parent="sQ6tridFzlUKtPEMu8lY-1" source="sQ6tridFzlUKtPEMu8lY-9" target="sQ6tridFzlUKtPEMu8lY-10" edge="1">
                    <mxGeometry width="50" height="50" relative="1" as="geometry">
                        <mxPoint x="264.14213562373106" y="224.14213562373106" as="sourcePoint"/>
                        <mxPoint x="295.85786437626894" y="255.85786437626894" as="targetPoint"/>
                    </mxGeometry>
                </mxCell>
                <mxCell id="sQ6tridFzlUKtPEMu8lY-15" value="" style="endArrow=none;html=1;strokeColor=#000000;strokeWidth=2;entryX=0;entryY=1;entryDx=0;entryDy=0;exitX=1;exitY=0;exitDx=0;exitDy=0;" parent="sQ6tridFzlUKtPEMu8lY-1" source="sQ6tridFzlUKtPEMu8lY-9" target="sQ6tridFzlUKtPEMu8lY-11" edge="1">
                    <mxGeometry width="50" height="50" relative="1" as="geometry">
                        <mxPoint x="274.14213562373106" y="234.14213562373106" as="sourcePoint"/>
                        <mxPoint x="305.85786437626894" y="265.85786437626894" as="targetPoint"/>
                    </mxGeometry>
                </mxCell>
                <mxCell id="sQ6tridFzlUKtPEMu8lY-16" value="" style="endArrow=classic;html=1;curved=1;strokeColor=#97D077;strokeWidth=2;dashed=1;exitX=1;exitY=0;exitDx=0;exitDy=0;entryX=0.5;entryY=1;entryDx=0;entryDy=0;edgeStyle=orthogonalEdgeStyle;" parent="sQ6tridFzlUKtPEMu8lY-1" source="sQ6tridFzlUKtPEMu8lY-11" target="sQ6tridFzlUKtPEMu8lY-3" edge="1">
                    <mxGeometry width="50" height="50" relative="1" as="geometry">
                        <mxPoint x="211.31999999999994" y="141.68000000000006" as="sourcePoint"/>
                        <mxPoint x="260" y="80" as="targetPoint"/>
                        <Array as="points">
                            <mxPoint x="194" y="300"/>
                            <mxPoint x="230" y="300"/>
                            <mxPoint x="230" y="200"/>
                            <mxPoint x="260" y="200"/>
                        </Array>
                    </mxGeometry>
                </mxCell>
                <mxCell id="sQ6tridFzlUKtPEMu8lY-29" value="&lt;font color=&quot;#000000&quot;&gt;replacing&lt;/font&gt;" style="ellipse;whiteSpace=wrap;html=1;aspect=fixed;strokeColor=#006EAF;strokeWidth=2;fillColor=#1ba1e2;fontColor=#ffffff;direction=south;" parent="sQ6tridFzlUKtPEMu8lY-1" vertex="1">
                    <mxGeometry x="320" y="240" width="40" height="40" as="geometry"/>
                </mxCell>
                <mxCell id="sQ6tridFzlUKtPEMu8lY-31" value="" style="endArrow=none;html=1;strokeColor=#000000;strokeWidth=2;entryX=0;entryY=0;entryDx=0;entryDy=0;exitX=1;exitY=1;exitDx=0;exitDy=0;" parent="sQ6tridFzlUKtPEMu8lY-1" source="sQ6tridFzlUKtPEMu8lY-7" target="sQ6tridFzlUKtPEMu8lY-29" edge="1">
                    <mxGeometry width="50" height="50" relative="1" as="geometry">
                        <mxPoint x="424.14213562373106" y="224.14213562373106" as="sourcePoint"/>
                        <mxPoint x="455.85786437626894" y="255.85786437626894" as="targetPoint"/>
                    </mxGeometry>
                </mxCell>
                <mxCell id="ziCMf1jrIJMO1rc83fvu-0" value="&lt;font color=&quot;#000000&quot;&gt;None&lt;/font&gt;" style="ellipse;whiteSpace=wrap;html=1;aspect=fixed;strokeColor=#006EAF;strokeWidth=2;fillColor=none;fontColor=#ffffff;dashed=1;" parent="sQ6tridFzlUKtPEMu8lY-1" vertex="1">
                    <mxGeometry x="280" y="300" width="40" height="40" as="geometry"/>
                </mxCell>
                <mxCell id="FaTsfREjC9cuFgCuOjqk-0" value="" style="endArrow=classic;html=1;curved=1;strokeColor=#97D077;strokeWidth=2;dashed=1;exitX=1;exitY=0;exitDx=0;exitDy=0;edgeStyle=orthogonalEdgeStyle;" parent="sQ6tridFzlUKtPEMu8lY-1" source="sQ6tridFzlUKtPEMu8lY-29" target="sQ6tridFzlUKtPEMu8lY-7" edge="1">
                    <mxGeometry width="50" height="50" relative="1" as="geometry">
                        <mxPoint x="211.31999999999994" y="261.68000000000006" as="sourcePoint"/>
                        <mxPoint x="260" y="200" as="targetPoint"/>
                    </mxGeometry>
                </mxCell>
                <mxCell id="FaTsfREjC9cuFgCuOjqk-1" value="" style="endArrow=none;html=1;strokeColor=#000000;strokeWidth=2;entryX=1;entryY=0;entryDx=0;entryDy=0;exitX=1.025;exitY=0.783;exitDx=0;exitDy=0;exitPerimeter=0;" parent="sQ6tridFzlUKtPEMu8lY-1" source="sQ6tridFzlUKtPEMu8lY-29" target="ziCMf1jrIJMO1rc83fvu-0" edge="1">
                    <mxGeometry width="50" height="50" relative="1" as="geometry">
                        <mxPoint x="395.85786437626894" y="224.14213562373106" as="sourcePoint"/>
                        <mxPoint x="364.14213562373106" y="255.85786437626894" as="targetPoint"/>
                    </mxGeometry>
                </mxCell>
                <mxCell id="FaTsfREjC9cuFgCuOjqk-2" value="&lt;font color=&quot;#000000&quot;&gt;parent&lt;/font&gt;" style="ellipse;whiteSpace=wrap;html=1;aspect=fixed;strokeColor=#006EAF;strokeWidth=2;fillColor=#1ba1e2;fontColor=#ffffff;" parent="sQ6tridFzlUKtPEMu8lY-1" vertex="1">
                    <mxGeometry x="240" y="440" width="40" height="40" as="geometry"/>
                </mxCell>
                <mxCell id="FaTsfREjC9cuFgCuOjqk-3" value="&lt;font color=&quot;#000000&quot;&gt;deleting&lt;/font&gt;" style="ellipse;whiteSpace=wrap;html=1;aspect=fixed;strokeColor=#FFB366;strokeWidth=2;fillColor=#1ba1e2;fontColor=#ffffff;" parent="sQ6tridFzlUKtPEMu8lY-1" vertex="1">
                    <mxGeometry x="240" y="520" width="40" height="40" as="geometry"/>
                </mxCell>
                <mxCell id="FaTsfREjC9cuFgCuOjqk-4" value="" style="endArrow=none;html=1;strokeColor=#000000;strokeWidth=2;exitX=0.5;exitY=1;exitDx=0;exitDy=0;entryX=0.5;entryY=0;entryDx=0;entryDy=0;" parent="sQ6tridFzlUKtPEMu8lY-1" source="FaTsfREjC9cuFgCuOjqk-2" target="FaTsfREjC9cuFgCuOjqk-3" edge="1">
                    <mxGeometry width="50" height="50" relative="1" as="geometry">
                        <mxPoint x="185.85786437626894" y="514.1421356237311" as="sourcePoint"/>
                        <mxPoint x="154.14213562373106" y="545.8578643762689" as="targetPoint"/>
                    </mxGeometry>
                </mxCell>
                <mxCell id="FaTsfREjC9cuFgCuOjqk-6" value="" style="ellipse;whiteSpace=wrap;html=1;aspect=fixed;strokeColor=#006EAF;strokeWidth=2;fillColor=#1ba1e2;fontColor=#ffffff;direction=south;" parent="sQ6tridFzlUKtPEMu8lY-1" vertex="1">
                    <mxGeometry x="420" y="580" width="40" height="40" as="geometry"/>
                </mxCell>
                <mxCell id="FaTsfREjC9cuFgCuOjqk-7" value="" style="endArrow=none;html=1;strokeColor=#000000;strokeWidth=2;entryX=0;entryY=1;entryDx=0;entryDy=0;exitX=1;exitY=0;exitDx=0;exitDy=0;" parent="sQ6tridFzlUKtPEMu8lY-1" target="FaTsfREjC9cuFgCuOjqk-3" edge="1">
                    <mxGeometry width="50" height="50" relative="1" as="geometry">
                        <mxPoint x="134.14213562373106" y="585.8578643762689" as="sourcePoint"/>
                        <mxPoint x="185.85786437626894" y="654.1421356237311" as="targetPoint"/>
                    </mxGeometry>
                </mxCell>
                <mxCell id="FaTsfREjC9cuFgCuOjqk-8" value="" style="ellipse;whiteSpace=wrap;html=1;aspect=fixed;strokeColor=#006EAF;strokeWidth=2;fillColor=#1ba1e2;fontColor=#ffffff;direction=south;" parent="sQ6tridFzlUKtPEMu8lY-1" vertex="1">
                    <mxGeometry x="100" y="580" width="40" height="40" as="geometry"/>
                </mxCell>
                <mxCell id="FaTsfREjC9cuFgCuOjqk-9" value="" style="ellipse;whiteSpace=wrap;html=1;aspect=fixed;strokeColor=#006EAF;strokeWidth=2;fillColor=#1ba1e2;fontColor=#ffffff;direction=south;" parent="sQ6tridFzlUKtPEMu8lY-1" vertex="1">
                    <mxGeometry x="40" y="640" width="40" height="40" as="geometry"/>
                </mxCell>
                <mxCell id="FaTsfREjC9cuFgCuOjqk-10" value="" style="ellipse;whiteSpace=wrap;html=1;aspect=fixed;strokeColor=#006EAF;strokeWidth=2;fillColor=#1ba1e2;fontColor=#ffffff;direction=south;" parent="sQ6tridFzlUKtPEMu8lY-1" vertex="1">
                    <mxGeometry x="160" y="640" width="40" height="40" as="geometry"/>
                </mxCell>
                <mxCell id="FaTsfREjC9cuFgCuOjqk-11" value="" style="ellipse;whiteSpace=wrap;html=1;aspect=fixed;strokeColor=#006EAF;strokeWidth=2;fillColor=#1ba1e2;fontColor=#ffffff;direction=south;" parent="sQ6tridFzlUKtPEMu8lY-1" vertex="1">
                    <mxGeometry x="480" y="640" width="40" height="40" as="geometry"/>
                </mxCell>
                <mxCell id="FaTsfREjC9cuFgCuOjqk-12" value="" style="endArrow=none;html=1;strokeColor=#000000;strokeWidth=2;entryX=0;entryY=1;entryDx=0;entryDy=0;exitX=1;exitY=0;exitDx=0;exitDy=0;" parent="sQ6tridFzlUKtPEMu8lY-1" source="FaTsfREjC9cuFgCuOjqk-6" target="FaTsfREjC9cuFgCuOjqk-11" edge="1">
                    <mxGeometry width="50" height="50" relative="1" as="geometry">
                        <mxPoint x="275.85786437626894" y="595.8578643762689" as="sourcePoint"/>
                        <mxPoint x="244.14213562373106" y="564.1421356237311" as="targetPoint"/>
                    </mxGeometry>
                </mxCell>
                <mxCell id="FaTsfREjC9cuFgCuOjqk-13" value="" style="endArrow=none;html=1;strokeColor=#000000;strokeWidth=2;entryX=0;entryY=0;entryDx=0;entryDy=0;exitX=1;exitY=1;exitDx=0;exitDy=0;" parent="sQ6tridFzlUKtPEMu8lY-1" source="FaTsfREjC9cuFgCuOjqk-8" target="FaTsfREjC9cuFgCuOjqk-9" edge="1">
                    <mxGeometry width="50" height="50" relative="1" as="geometry">
                        <mxPoint x="264.14213562373106" y="624.1421356237311" as="sourcePoint"/>
                        <mxPoint x="295.85786437626894" y="655.8578643762689" as="targetPoint"/>
                    </mxGeometry>
                </mxCell>
                <mxCell id="FaTsfREjC9cuFgCuOjqk-14" value="" style="endArrow=none;html=1;strokeColor=#000000;strokeWidth=2;entryX=0;entryY=1;entryDx=0;entryDy=0;exitX=1;exitY=0;exitDx=0;exitDy=0;" parent="sQ6tridFzlUKtPEMu8lY-1" source="FaTsfREjC9cuFgCuOjqk-8" target="FaTsfREjC9cuFgCuOjqk-10" edge="1">
                    <mxGeometry width="50" height="50" relative="1" as="geometry">
                        <mxPoint x="274.14213562373106" y="634.1421356237311" as="sourcePoint"/>
                        <mxPoint x="305.85786437626894" y="665.8578643762689" as="targetPoint"/>
                    </mxGeometry>
                </mxCell>
                <mxCell id="FaTsfREjC9cuFgCuOjqk-15" value="" style="endArrow=classic;html=1;curved=1;strokeColor=#97D077;strokeWidth=2;dashed=1;exitX=1;exitY=0;exitDx=0;exitDy=0;entryX=0.5;entryY=1;entryDx=0;entryDy=0;edgeStyle=orthogonalEdgeStyle;" parent="sQ6tridFzlUKtPEMu8lY-1" source="FaTsfREjC9cuFgCuOjqk-10" target="FaTsfREjC9cuFgCuOjqk-3" edge="1">
                    <mxGeometry width="50" height="50" relative="1" as="geometry">
                        <mxPoint x="211.31999999999994" y="541.6800000000001" as="sourcePoint"/>
                        <mxPoint x="260" y="480" as="targetPoint"/>
                        <Array as="points">
                            <mxPoint x="194" y="700"/>
                            <mxPoint x="230" y="700"/>
                            <mxPoint x="230" y="600"/>
                            <mxPoint x="260" y="600"/>
                        </Array>
                    </mxGeometry>
                </mxCell>
                <mxCell id="FaTsfREjC9cuFgCuOjqk-16" value="&lt;font color=&quot;#000000&quot;&gt;replacing&lt;/font&gt;" style="ellipse;whiteSpace=wrap;html=1;aspect=fixed;strokeColor=#006EAF;strokeWidth=2;fillColor=#1ba1e2;fontColor=#ffffff;direction=south;" parent="sQ6tridFzlUKtPEMu8lY-1" vertex="1">
                    <mxGeometry x="360" y="520" width="40" height="40" as="geometry"/>
                </mxCell>
                <mxCell id="FaTsfREjC9cuFgCuOjqk-17" value="" style="endArrow=none;html=1;strokeColor=#000000;strokeWidth=2;entryX=1;entryY=0;entryDx=0;entryDy=0;exitX=0;exitY=1;exitDx=0;exitDy=0;" parent="sQ6tridFzlUKtPEMu8lY-1" source="FaTsfREjC9cuFgCuOjqk-6" target="FaTsfREjC9cuFgCuOjqk-16" edge="1">
                    <mxGeometry width="50" height="50" relative="1" as="geometry">
                        <mxPoint x="464.14213562373106" y="624.1421356237311" as="sourcePoint"/>
                        <mxPoint x="495.85786437626894" y="655.8578643762689" as="targetPoint"/>
                    </mxGeometry>
                </mxCell>
                <mxCell id="rwiqCNLo5Zk6dfmjTi6c-0" value="&lt;font color=&quot;#000000&quot;&gt;None&lt;/font&gt;" style="ellipse;whiteSpace=wrap;html=1;aspect=fixed;strokeColor=#006EAF;strokeWidth=2;fillColor=none;fontColor=#ffffff;dashed=1;" parent="sQ6tridFzlUKtPEMu8lY-1" vertex="1">
                    <mxGeometry x="300" y="580" width="40" height="40" as="geometry"/>
                </mxCell>
                <mxCell id="rwiqCNLo5Zk6dfmjTi6c-1" value="" style="endArrow=none;html=1;strokeColor=#000000;strokeWidth=2;entryX=1;entryY=0;entryDx=0;entryDy=0;exitX=1;exitY=1;exitDx=0;exitDy=0;" parent="sQ6tridFzlUKtPEMu8lY-1" source="FaTsfREjC9cuFgCuOjqk-16" target="rwiqCNLo5Zk6dfmjTi6c-0" edge="1">
                    <mxGeometry width="50" height="50" relative="1" as="geometry">
                        <mxPoint x="308.6800000000003" y="780" as="sourcePoint"/>
                        <mxPoint x="344.14213562373106" y="754.8578643762689" as="targetPoint"/>
                    </mxGeometry>
                </mxCell>
                <mxCell id="rwiqCNLo5Zk6dfmjTi6c-21" value="" style="html=1;shadow=0;dashed=0;align=center;verticalAlign=middle;shape=mxgraph.arrows2.arrow;dy=0.45;dx=30.5;notch=0;strokeColor=none;fillColor=#FF9933;rotation=90;" parent="sQ6tridFzlUKtPEMu8lY-1" vertex="1">
                    <mxGeometry x="235" y="730" width="50" height="40" as="geometry"/>
                </mxCell>
                <mxCell id="rwiqCNLo5Zk6dfmjTi6c-22" value="&lt;font color=&quot;#000000&quot;&gt;parent&lt;/font&gt;" style="ellipse;whiteSpace=wrap;html=1;aspect=fixed;strokeColor=#006EAF;strokeWidth=2;fillColor=#1ba1e2;fontColor=#ffffff;" parent="sQ6tridFzlUKtPEMu8lY-1" vertex="1">
                    <mxGeometry x="240" y="800" width="40" height="40" as="geometry"/>
                </mxCell>
                <mxCell id="rwiqCNLo5Zk6dfmjTi6c-24" value="" style="endArrow=none;html=1;strokeColor=#000000;strokeWidth=2;exitX=0.5;exitY=1;exitDx=0;exitDy=0;entryX=0;entryY=0.5;entryDx=0;entryDy=0;" parent="sQ6tridFzlUKtPEMu8lY-1" source="rwiqCNLo5Zk6dfmjTi6c-22" target="rwiqCNLo5Zk6dfmjTi6c-35" edge="1">
                    <mxGeometry width="50" height="50" relative="1" as="geometry">
                        <mxPoint x="185.85786437626894" y="904.1421356237311" as="sourcePoint"/>
                        <mxPoint x="260" y="910" as="targetPoint"/>
                    </mxGeometry>
                </mxCell>
                <mxCell id="rwiqCNLo5Zk6dfmjTi6c-25" value="" style="ellipse;whiteSpace=wrap;html=1;aspect=fixed;strokeColor=#006EAF;strokeWidth=2;fillColor=#1ba1e2;fontColor=#ffffff;direction=south;" parent="sQ6tridFzlUKtPEMu8lY-1" vertex="1">
                    <mxGeometry x="320" y="940" width="40" height="40" as="geometry"/>
                </mxCell>
                <mxCell id="rwiqCNLo5Zk6dfmjTi6c-26" value="" style="endArrow=none;html=1;strokeColor=#000000;strokeWidth=2;entryX=1;entryY=1;entryDx=0;entryDy=0;" parent="sQ6tridFzlUKtPEMu8lY-1" target="rwiqCNLo5Zk6dfmjTi6c-35" edge="1">
                    <mxGeometry width="50" height="50" relative="1" as="geometry">
                        <mxPoint x="190" y="950" as="sourcePoint"/>
                        <mxPoint x="245.85786437626894" y="944.1421356237311" as="targetPoint"/>
                    </mxGeometry>
                </mxCell>
                <mxCell id="rwiqCNLo5Zk6dfmjTi6c-27" value="" style="ellipse;whiteSpace=wrap;html=1;aspect=fixed;strokeColor=#006EAF;strokeWidth=2;fillColor=#1ba1e2;fontColor=#ffffff;direction=south;" parent="sQ6tridFzlUKtPEMu8lY-1" vertex="1">
                    <mxGeometry x="160" y="940" width="40" height="40" as="geometry"/>
                </mxCell>
                <mxCell id="rwiqCNLo5Zk6dfmjTi6c-28" value="" style="ellipse;whiteSpace=wrap;html=1;aspect=fixed;strokeColor=#006EAF;strokeWidth=2;fillColor=#1ba1e2;fontColor=#ffffff;direction=south;" parent="sQ6tridFzlUKtPEMu8lY-1" vertex="1">
                    <mxGeometry x="100" y="1000" width="40" height="40" as="geometry"/>
                </mxCell>
                <mxCell id="rwiqCNLo5Zk6dfmjTi6c-29" value="" style="ellipse;whiteSpace=wrap;html=1;aspect=fixed;strokeColor=#006EAF;strokeWidth=2;fillColor=#1ba1e2;fontColor=#ffffff;direction=south;" parent="sQ6tridFzlUKtPEMu8lY-1" vertex="1">
                    <mxGeometry x="220" y="1000" width="40" height="40" as="geometry"/>
                </mxCell>
                <mxCell id="rwiqCNLo5Zk6dfmjTi6c-30" value="" style="ellipse;whiteSpace=wrap;html=1;aspect=fixed;strokeColor=#006EAF;strokeWidth=2;fillColor=#1ba1e2;fontColor=#ffffff;direction=south;" parent="sQ6tridFzlUKtPEMu8lY-1" vertex="1">
                    <mxGeometry x="380" y="1000" width="40" height="40" as="geometry"/>
                </mxCell>
                <mxCell id="rwiqCNLo5Zk6dfmjTi6c-31" value="" style="endArrow=none;html=1;strokeColor=#000000;strokeWidth=2;entryX=0;entryY=1;entryDx=0;entryDy=0;exitX=1;exitY=0;exitDx=0;exitDy=0;" parent="sQ6tridFzlUKtPEMu8lY-1" source="rwiqCNLo5Zk6dfmjTi6c-25" target="rwiqCNLo5Zk6dfmjTi6c-30" edge="1">
                    <mxGeometry width="50" height="50" relative="1" as="geometry">
                        <mxPoint x="275.85786437626894" y="985.8578643762689" as="sourcePoint"/>
                        <mxPoint x="244.14213562373106" y="954.1421356237311" as="targetPoint"/>
                    </mxGeometry>
                </mxCell>
                <mxCell id="rwiqCNLo5Zk6dfmjTi6c-32" value="" style="endArrow=none;html=1;strokeColor=#000000;strokeWidth=2;entryX=0;entryY=0;entryDx=0;entryDy=0;exitX=1;exitY=1;exitDx=0;exitDy=0;" parent="sQ6tridFzlUKtPEMu8lY-1" source="rwiqCNLo5Zk6dfmjTi6c-27" target="rwiqCNLo5Zk6dfmjTi6c-28" edge="1">
                    <mxGeometry width="50" height="50" relative="1" as="geometry">
                        <mxPoint x="264.14213562373106" y="1014.1421356237311" as="sourcePoint"/>
                        <mxPoint x="295.85786437626894" y="1045.857864376269" as="targetPoint"/>
                    </mxGeometry>
                </mxCell>
                <mxCell id="rwiqCNLo5Zk6dfmjTi6c-33" value="" style="endArrow=none;html=1;strokeColor=#000000;strokeWidth=2;entryX=0;entryY=1;entryDx=0;entryDy=0;exitX=1;exitY=0;exitDx=0;exitDy=0;" parent="sQ6tridFzlUKtPEMu8lY-1" source="rwiqCNLo5Zk6dfmjTi6c-27" target="rwiqCNLo5Zk6dfmjTi6c-29" edge="1">
                    <mxGeometry width="50" height="50" relative="1" as="geometry">
                        <mxPoint x="274.14213562373106" y="1024.142135623731" as="sourcePoint"/>
                        <mxPoint x="305.85786437626894" y="1055.857864376269" as="targetPoint"/>
                    </mxGeometry>
                </mxCell>
                <mxCell id="rwiqCNLo5Zk6dfmjTi6c-34" value="" style="endArrow=classic;html=1;curved=1;strokeColor=#97D077;strokeWidth=2;dashed=1;exitX=1;exitY=0;exitDx=0;exitDy=0;entryX=1;entryY=0.5;entryDx=0;entryDy=0;edgeStyle=orthogonalEdgeStyle;" parent="sQ6tridFzlUKtPEMu8lY-1" source="rwiqCNLo5Zk6dfmjTi6c-29" target="rwiqCNLo5Zk6dfmjTi6c-35" edge="1">
                    <mxGeometry width="50" height="50" relative="1" as="geometry">
                        <mxPoint x="211.31999999999994" y="931.6800000000001" as="sourcePoint"/>
                        <mxPoint x="260" y="950" as="targetPoint"/>
                        <Array as="points">
                            <mxPoint x="254" y="1070"/>
                            <mxPoint x="330" y="1070"/>
                            <mxPoint x="330" y="1000"/>
                            <mxPoint x="260" y="1000"/>
                        </Array>
                    </mxGeometry>
                </mxCell>
                <mxCell id="rwiqCNLo5Zk6dfmjTi6c-35" value="&lt;font color=&quot;#000000&quot;&gt;replacing&lt;/font&gt;" style="ellipse;whiteSpace=wrap;html=1;aspect=fixed;strokeColor=#006EAF;strokeWidth=2;fillColor=#1ba1e2;fontColor=#ffffff;direction=south;" parent="sQ6tridFzlUKtPEMu8lY-1" vertex="1">
                    <mxGeometry x="240" y="880" width="40" height="40" as="geometry"/>
                </mxCell>
                <mxCell id="rwiqCNLo5Zk6dfmjTi6c-36" value="" style="endArrow=none;html=1;strokeColor=#000000;strokeWidth=2;entryX=1;entryY=0;entryDx=0;entryDy=0;exitX=0;exitY=1;exitDx=0;exitDy=0;" parent="sQ6tridFzlUKtPEMu8lY-1" source="rwiqCNLo5Zk6dfmjTi6c-25" target="rwiqCNLo5Zk6dfmjTi6c-35" edge="1">
                    <mxGeometry width="50" height="50" relative="1" as="geometry">
                        <mxPoint x="464.14213562373106" y="1014.1421356237311" as="sourcePoint"/>
                        <mxPoint x="495.85786437626894" y="1045.857864376269" as="targetPoint"/>
                    </mxGeometry>
                </mxCell>
                <mxCell id="GLvNDDUklwn0IVNgssmm-0" value="&lt;font color=&quot;#000000&quot;&gt;None&lt;/font&gt;" style="ellipse;whiteSpace=wrap;html=1;aspect=fixed;strokeColor=#006EAF;strokeWidth=2;fillColor=none;fontColor=#ffffff;dashed=1;" parent="sQ6tridFzlUKtPEMu8lY-1" vertex="1">
                    <mxGeometry x="360" y="640" width="40" height="40" as="geometry"/>
                </mxCell>
                <mxCell id="GLvNDDUklwn0IVNgssmm-2" value="" style="endArrow=none;html=1;strokeColor=#000000;strokeWidth=2;entryX=1;entryY=0;entryDx=0;entryDy=0;exitX=1;exitY=1;exitDx=0;exitDy=0;" parent="sQ6tridFzlUKtPEMu8lY-1" source="FaTsfREjC9cuFgCuOjqk-6" target="GLvNDDUklwn0IVNgssmm-0" edge="1">
                    <mxGeometry width="50" height="50" relative="1" as="geometry">
                        <mxPoint x="464.14213562373106" y="624.1421356237311" as="sourcePoint"/>
                        <mxPoint x="495.85786437626894" y="655.8578643762689" as="targetPoint"/>
                    </mxGeometry>
                </mxCell>
                <mxCell id="iKXly596ygs2tPWaNtNv-0" value="" style="endArrow=classic;html=1;dashed=1;strokeColor=#97D077;strokeWidth=2;" edge="1" parent="sQ6tridFzlUKtPEMu8lY-1">
                    <mxGeometry width="50" height="50" relative="1" as="geometry">
                        <mxPoint x="370" y="19.5" as="sourcePoint"/>
                        <mxPoint x="420" y="19.5" as="targetPoint"/>
                    </mxGeometry>
                </mxCell>
                <mxCell id="iKXly596ygs2tPWaNtNv-1" value="&lt;font color=&quot;#000000&quot; style=&quot;font-size: 14px&quot;&gt;&lt;b&gt;right thread&lt;/b&gt;&lt;/font&gt;" style="text;html=1;strokeColor=none;fillColor=none;align=center;verticalAlign=middle;whiteSpace=wrap;rounded=0;" vertex="1" parent="sQ6tridFzlUKtPEMu8lY-1">
                    <mxGeometry x="420" y="10" width="90" height="20" as="geometry"/>
                </mxCell>
            </root>
        </mxGraphModel>
    </diagram>
    <diagram name="two_children_3" id="yiVslKFJf6vZwrnTdlUu">
        <mxGraphModel dx="1770" dy="2179" grid="1" gridSize="10" guides="1" tooltips="1" connect="1" arrows="1" fold="1" page="1" pageScale="1" pageWidth="827" pageHeight="1169" math="0" shadow="0">
            <root>
                <mxCell id="R2kJRojOLorgG1siDhDO-0"/>
                <mxCell id="R2kJRojOLorgG1siDhDO-1" parent="R2kJRojOLorgG1siDhDO-0"/>
                <mxCell id="4EvICtWRIrPg3ySppMw_-4" value="" style="rounded=0;whiteSpace=wrap;html=1;fillColor=#FFFFFF;strokeColor=none;" parent="R2kJRojOLorgG1siDhDO-1" vertex="1">
                    <mxGeometry x="20" y="-20" width="480" height="1460" as="geometry"/>
                </mxCell>
                <mxCell id="R2kJRojOLorgG1siDhDO-2" value="&lt;font color=&quot;#000000&quot;&gt;parent&lt;/font&gt;" style="ellipse;whiteSpace=wrap;html=1;aspect=fixed;strokeColor=#006EAF;strokeWidth=2;fillColor=#1ba1e2;fontColor=#ffffff;" parent="R2kJRojOLorgG1siDhDO-1" vertex="1">
                    <mxGeometry x="240" y="40" width="40" height="40" as="geometry"/>
                </mxCell>
                <mxCell id="R2kJRojOLorgG1siDhDO-3" value="&lt;font color=&quot;#000000&quot;&gt;deleting&lt;/font&gt;" style="ellipse;whiteSpace=wrap;html=1;aspect=fixed;strokeColor=#FFB366;strokeWidth=2;fillColor=#1ba1e2;fontColor=#ffffff;" parent="R2kJRojOLorgG1siDhDO-1" vertex="1">
                    <mxGeometry x="240" y="120" width="40" height="40" as="geometry"/>
                </mxCell>
                <mxCell id="R2kJRojOLorgG1siDhDO-4" value="" style="endArrow=none;html=1;strokeColor=#000000;strokeWidth=2;exitX=0.5;exitY=1;exitDx=0;exitDy=0;entryX=0.5;entryY=0;entryDx=0;entryDy=0;" parent="R2kJRojOLorgG1siDhDO-1" source="R2kJRojOLorgG1siDhDO-2" target="R2kJRojOLorgG1siDhDO-3" edge="1">
                    <mxGeometry width="50" height="50" relative="1" as="geometry">
                        <mxPoint x="185.85786437626894" y="114.14213562373106" as="sourcePoint"/>
                        <mxPoint x="154.14213562373106" y="145.85786437626894" as="targetPoint"/>
                    </mxGeometry>
                </mxCell>
                <mxCell id="R2kJRojOLorgG1siDhDO-5" value="" style="endArrow=none;html=1;strokeColor=#000000;strokeWidth=2;entryX=1;entryY=1;entryDx=0;entryDy=0;exitX=0;exitY=1;exitDx=0;exitDy=0;" parent="R2kJRojOLorgG1siDhDO-1" source="R2kJRojOLorgG1siDhDO-7" target="R2kJRojOLorgG1siDhDO-3" edge="1">
                    <mxGeometry width="50" height="50" relative="1" as="geometry">
                        <mxPoint x="134.14213562373106" y="185.85786437626894" as="sourcePoint"/>
                        <mxPoint x="204.14213562373106" y="135.85786437626894" as="targetPoint"/>
                    </mxGeometry>
                </mxCell>
                <mxCell id="R2kJRojOLorgG1siDhDO-6" value="" style="html=1;shadow=0;dashed=0;align=center;verticalAlign=middle;shape=mxgraph.arrows2.arrow;dy=0.45;dx=30.5;notch=0;strokeColor=none;fillColor=#FF9933;rotation=90;" parent="R2kJRojOLorgG1siDhDO-1" vertex="1">
                    <mxGeometry x="235" y="370" width="50" height="40" as="geometry"/>
                </mxCell>
                <mxCell id="R2kJRojOLorgG1siDhDO-7" value="" style="ellipse;whiteSpace=wrap;html=1;aspect=fixed;strokeColor=#006EAF;strokeWidth=2;fillColor=#1ba1e2;fontColor=#ffffff;direction=south;" parent="R2kJRojOLorgG1siDhDO-1" vertex="1">
                    <mxGeometry x="380" y="180" width="40" height="40" as="geometry"/>
                </mxCell>
                <mxCell id="R2kJRojOLorgG1siDhDO-8" value="" style="endArrow=none;html=1;strokeColor=#000000;strokeWidth=2;entryX=0;entryY=1;entryDx=0;entryDy=0;exitX=1;exitY=0;exitDx=0;exitDy=0;" parent="R2kJRojOLorgG1siDhDO-1" target="R2kJRojOLorgG1siDhDO-3" edge="1">
                    <mxGeometry width="50" height="50" relative="1" as="geometry">
                        <mxPoint x="134.14213562373106" y="185.85786437626894" as="sourcePoint"/>
                        <mxPoint x="185.85786437626894" y="254.14213562373106" as="targetPoint"/>
                    </mxGeometry>
                </mxCell>
                <mxCell id="R2kJRojOLorgG1siDhDO-9" value="" style="ellipse;whiteSpace=wrap;html=1;aspect=fixed;strokeColor=#006EAF;strokeWidth=2;fillColor=#1ba1e2;fontColor=#ffffff;direction=south;" parent="R2kJRojOLorgG1siDhDO-1" vertex="1">
                    <mxGeometry x="100" y="180" width="40" height="40" as="geometry"/>
                </mxCell>
                <mxCell id="R2kJRojOLorgG1siDhDO-10" value="" style="ellipse;whiteSpace=wrap;html=1;aspect=fixed;strokeColor=#006EAF;strokeWidth=2;fillColor=#1ba1e2;fontColor=#ffffff;direction=south;" parent="R2kJRojOLorgG1siDhDO-1" vertex="1">
                    <mxGeometry x="40" y="240" width="40" height="40" as="geometry"/>
                </mxCell>
                <mxCell id="R2kJRojOLorgG1siDhDO-11" value="" style="ellipse;whiteSpace=wrap;html=1;aspect=fixed;strokeColor=#006EAF;strokeWidth=2;fillColor=#1ba1e2;fontColor=#ffffff;direction=south;" parent="R2kJRojOLorgG1siDhDO-1" vertex="1">
                    <mxGeometry x="160" y="240" width="40" height="40" as="geometry"/>
                </mxCell>
                <mxCell id="R2kJRojOLorgG1siDhDO-12" value="" style="ellipse;whiteSpace=wrap;html=1;aspect=fixed;strokeColor=#006EAF;strokeWidth=2;fillColor=#1ba1e2;fontColor=#ffffff;direction=south;" parent="R2kJRojOLorgG1siDhDO-1" vertex="1">
                    <mxGeometry x="440" y="240" width="40" height="40" as="geometry"/>
                </mxCell>
                <mxCell id="R2kJRojOLorgG1siDhDO-13" value="" style="endArrow=none;html=1;strokeColor=#000000;strokeWidth=2;entryX=0;entryY=1;entryDx=0;entryDy=0;exitX=1;exitY=0;exitDx=0;exitDy=0;" parent="R2kJRojOLorgG1siDhDO-1" source="R2kJRojOLorgG1siDhDO-7" target="R2kJRojOLorgG1siDhDO-12" edge="1">
                    <mxGeometry width="50" height="50" relative="1" as="geometry">
                        <mxPoint x="235.85786437626894" y="195.85786437626894" as="sourcePoint"/>
                        <mxPoint x="204.14213562373106" y="164.14213562373106" as="targetPoint"/>
                    </mxGeometry>
                </mxCell>
                <mxCell id="R2kJRojOLorgG1siDhDO-14" value="" style="endArrow=none;html=1;strokeColor=#000000;strokeWidth=2;entryX=0;entryY=0;entryDx=0;entryDy=0;exitX=1;exitY=1;exitDx=0;exitDy=0;" parent="R2kJRojOLorgG1siDhDO-1" source="R2kJRojOLorgG1siDhDO-9" target="R2kJRojOLorgG1siDhDO-10" edge="1">
                    <mxGeometry width="50" height="50" relative="1" as="geometry">
                        <mxPoint x="264.14213562373106" y="224.14213562373106" as="sourcePoint"/>
                        <mxPoint x="295.85786437626894" y="255.85786437626894" as="targetPoint"/>
                    </mxGeometry>
                </mxCell>
                <mxCell id="R2kJRojOLorgG1siDhDO-15" value="" style="endArrow=none;html=1;strokeColor=#000000;strokeWidth=2;entryX=0;entryY=1;entryDx=0;entryDy=0;exitX=1;exitY=0;exitDx=0;exitDy=0;" parent="R2kJRojOLorgG1siDhDO-1" source="R2kJRojOLorgG1siDhDO-9" target="R2kJRojOLorgG1siDhDO-11" edge="1">
                    <mxGeometry width="50" height="50" relative="1" as="geometry">
                        <mxPoint x="274.14213562373106" y="234.14213562373106" as="sourcePoint"/>
                        <mxPoint x="305.85786437626894" y="265.85786437626894" as="targetPoint"/>
                    </mxGeometry>
                </mxCell>
                <mxCell id="R2kJRojOLorgG1siDhDO-16" value="" style="endArrow=classic;html=1;curved=1;strokeColor=#97D077;strokeWidth=2;dashed=1;exitX=1;exitY=0;exitDx=0;exitDy=0;entryX=0.5;entryY=1;entryDx=0;entryDy=0;edgeStyle=orthogonalEdgeStyle;" parent="R2kJRojOLorgG1siDhDO-1" source="R2kJRojOLorgG1siDhDO-11" target="R2kJRojOLorgG1siDhDO-3" edge="1">
                    <mxGeometry width="50" height="50" relative="1" as="geometry">
                        <mxPoint x="211.31999999999994" y="141.68000000000006" as="sourcePoint"/>
                        <mxPoint x="260" y="80" as="targetPoint"/>
                        <Array as="points">
                            <mxPoint x="194" y="300"/>
                            <mxPoint x="230" y="300"/>
                            <mxPoint x="230" y="200"/>
                            <mxPoint x="260" y="200"/>
                        </Array>
                    </mxGeometry>
                </mxCell>
                <mxCell id="R2kJRojOLorgG1siDhDO-17" value="&lt;font color=&quot;#000000&quot;&gt;replacing&lt;/font&gt;" style="ellipse;whiteSpace=wrap;html=1;aspect=fixed;strokeColor=#006EAF;strokeWidth=2;fillColor=#1ba1e2;fontColor=#ffffff;direction=south;" parent="R2kJRojOLorgG1siDhDO-1" vertex="1">
                    <mxGeometry x="320" y="240" width="40" height="40" as="geometry"/>
                </mxCell>
                <mxCell id="R2kJRojOLorgG1siDhDO-18" value="" style="endArrow=none;html=1;strokeColor=#000000;strokeWidth=2;entryX=0;entryY=0;entryDx=0;entryDy=0;exitX=1;exitY=1;exitDx=0;exitDy=0;" parent="R2kJRojOLorgG1siDhDO-1" source="R2kJRojOLorgG1siDhDO-7" target="R2kJRojOLorgG1siDhDO-17" edge="1">
                    <mxGeometry width="50" height="50" relative="1" as="geometry">
                        <mxPoint x="424.14213562373106" y="224.14213562373106" as="sourcePoint"/>
                        <mxPoint x="455.85786437626894" y="255.85786437626894" as="targetPoint"/>
                    </mxGeometry>
                </mxCell>
                <mxCell id="R2kJRojOLorgG1siDhDO-19" value="&lt;font color=&quot;#000000&quot;&gt;None&lt;/font&gt;" style="ellipse;whiteSpace=wrap;html=1;aspect=fixed;strokeColor=#006EAF;strokeWidth=2;fillColor=none;fontColor=#ffffff;dashed=1;" parent="R2kJRojOLorgG1siDhDO-1" vertex="1">
                    <mxGeometry x="280" y="300" width="40" height="40" as="geometry"/>
                </mxCell>
                <mxCell id="R2kJRojOLorgG1siDhDO-20" value="" style="endArrow=classic;html=1;curved=1;strokeColor=#97D077;strokeWidth=2;dashed=1;exitX=1;exitY=0;exitDx=0;exitDy=0;edgeStyle=orthogonalEdgeStyle;" parent="R2kJRojOLorgG1siDhDO-1" source="R2kJRojOLorgG1siDhDO-54" target="R2kJRojOLorgG1siDhDO-7" edge="1">
                    <mxGeometry width="50" height="50" relative="1" as="geometry">
                        <mxPoint x="211.31999999999994" y="261.68000000000006" as="sourcePoint"/>
                        <mxPoint x="260" y="200" as="targetPoint"/>
                        <Array as="points">
                            <mxPoint x="394" y="350"/>
                            <mxPoint x="430" y="350"/>
                            <mxPoint x="430" y="290"/>
                            <mxPoint x="400" y="290"/>
                        </Array>
                    </mxGeometry>
                </mxCell>
                <mxCell id="R2kJRojOLorgG1siDhDO-21" value="" style="endArrow=none;html=1;strokeColor=#000000;strokeWidth=2;entryX=1;entryY=0;entryDx=0;entryDy=0;exitX=1.025;exitY=0.783;exitDx=0;exitDy=0;exitPerimeter=0;" parent="R2kJRojOLorgG1siDhDO-1" source="R2kJRojOLorgG1siDhDO-17" target="R2kJRojOLorgG1siDhDO-19" edge="1">
                    <mxGeometry width="50" height="50" relative="1" as="geometry">
                        <mxPoint x="395.85786437626894" y="224.14213562373106" as="sourcePoint"/>
                        <mxPoint x="364.14213562373106" y="255.85786437626894" as="targetPoint"/>
                    </mxGeometry>
                </mxCell>
                <mxCell id="R2kJRojOLorgG1siDhDO-22" value="&lt;font color=&quot;#000000&quot;&gt;parent&lt;/font&gt;" style="ellipse;whiteSpace=wrap;html=1;aspect=fixed;strokeColor=#006EAF;strokeWidth=2;fillColor=#1ba1e2;fontColor=#ffffff;" parent="R2kJRojOLorgG1siDhDO-1" vertex="1">
                    <mxGeometry x="240" y="440" width="40" height="40" as="geometry"/>
                </mxCell>
                <mxCell id="R2kJRojOLorgG1siDhDO-23" value="&lt;font color=&quot;#000000&quot;&gt;deleting&lt;/font&gt;" style="ellipse;whiteSpace=wrap;html=1;aspect=fixed;strokeColor=#FFB366;strokeWidth=2;fillColor=#1ba1e2;fontColor=#ffffff;" parent="R2kJRojOLorgG1siDhDO-1" vertex="1">
                    <mxGeometry x="240" y="520" width="40" height="40" as="geometry"/>
                </mxCell>
                <mxCell id="R2kJRojOLorgG1siDhDO-24" value="" style="endArrow=none;html=1;strokeColor=#000000;strokeWidth=2;exitX=0.5;exitY=1;exitDx=0;exitDy=0;entryX=0.5;entryY=0;entryDx=0;entryDy=0;" parent="R2kJRojOLorgG1siDhDO-1" source="R2kJRojOLorgG1siDhDO-22" target="R2kJRojOLorgG1siDhDO-23" edge="1">
                    <mxGeometry width="50" height="50" relative="1" as="geometry">
                        <mxPoint x="185.85786437626894" y="514.1421356237311" as="sourcePoint"/>
                        <mxPoint x="154.14213562373106" y="545.8578643762689" as="targetPoint"/>
                    </mxGeometry>
                </mxCell>
                <mxCell id="R2kJRojOLorgG1siDhDO-26" value="" style="endArrow=none;html=1;strokeColor=#000000;strokeWidth=2;entryX=0;entryY=1;entryDx=0;entryDy=0;exitX=1;exitY=0;exitDx=0;exitDy=0;" parent="R2kJRojOLorgG1siDhDO-1" target="R2kJRojOLorgG1siDhDO-23" edge="1">
                    <mxGeometry width="50" height="50" relative="1" as="geometry">
                        <mxPoint x="134.14213562373106" y="585.8578643762689" as="sourcePoint"/>
                        <mxPoint x="185.85786437626894" y="654.1421356237311" as="targetPoint"/>
                    </mxGeometry>
                </mxCell>
                <mxCell id="R2kJRojOLorgG1siDhDO-27" value="" style="ellipse;whiteSpace=wrap;html=1;aspect=fixed;strokeColor=#006EAF;strokeWidth=2;fillColor=#1ba1e2;fontColor=#ffffff;direction=south;" parent="R2kJRojOLorgG1siDhDO-1" vertex="1">
                    <mxGeometry x="100" y="580" width="40" height="40" as="geometry"/>
                </mxCell>
                <mxCell id="R2kJRojOLorgG1siDhDO-28" value="" style="ellipse;whiteSpace=wrap;html=1;aspect=fixed;strokeColor=#006EAF;strokeWidth=2;fillColor=#1ba1e2;fontColor=#ffffff;direction=south;" parent="R2kJRojOLorgG1siDhDO-1" vertex="1">
                    <mxGeometry x="40" y="640" width="40" height="40" as="geometry"/>
                </mxCell>
                <mxCell id="R2kJRojOLorgG1siDhDO-29" value="" style="ellipse;whiteSpace=wrap;html=1;aspect=fixed;strokeColor=#006EAF;strokeWidth=2;fillColor=#1ba1e2;fontColor=#ffffff;direction=south;" parent="R2kJRojOLorgG1siDhDO-1" vertex="1">
                    <mxGeometry x="160" y="640" width="40" height="40" as="geometry"/>
                </mxCell>
                <mxCell id="R2kJRojOLorgG1siDhDO-32" value="" style="endArrow=none;html=1;strokeColor=#000000;strokeWidth=2;entryX=0;entryY=0;entryDx=0;entryDy=0;exitX=1;exitY=1;exitDx=0;exitDy=0;" parent="R2kJRojOLorgG1siDhDO-1" source="R2kJRojOLorgG1siDhDO-27" target="R2kJRojOLorgG1siDhDO-28" edge="1">
                    <mxGeometry width="50" height="50" relative="1" as="geometry">
                        <mxPoint x="264.14213562373106" y="624.1421356237311" as="sourcePoint"/>
                        <mxPoint x="295.85786437626894" y="655.8578643762689" as="targetPoint"/>
                    </mxGeometry>
                </mxCell>
                <mxCell id="R2kJRojOLorgG1siDhDO-33" value="" style="endArrow=none;html=1;strokeColor=#000000;strokeWidth=2;entryX=0;entryY=1;entryDx=0;entryDy=0;exitX=1;exitY=0;exitDx=0;exitDy=0;" parent="R2kJRojOLorgG1siDhDO-1" source="R2kJRojOLorgG1siDhDO-27" target="R2kJRojOLorgG1siDhDO-29" edge="1">
                    <mxGeometry width="50" height="50" relative="1" as="geometry">
                        <mxPoint x="274.14213562373106" y="634.1421356237311" as="sourcePoint"/>
                        <mxPoint x="305.85786437626894" y="665.8578643762689" as="targetPoint"/>
                    </mxGeometry>
                </mxCell>
                <mxCell id="R2kJRojOLorgG1siDhDO-34" value="" style="endArrow=classic;html=1;curved=1;strokeColor=#97D077;strokeWidth=2;dashed=1;exitX=1;exitY=0;exitDx=0;exitDy=0;entryX=0.5;entryY=1;entryDx=0;entryDy=0;edgeStyle=orthogonalEdgeStyle;" parent="R2kJRojOLorgG1siDhDO-1" source="R2kJRojOLorgG1siDhDO-29" target="R2kJRojOLorgG1siDhDO-23" edge="1">
                    <mxGeometry width="50" height="50" relative="1" as="geometry">
                        <mxPoint x="211.31999999999994" y="541.6800000000001" as="sourcePoint"/>
                        <mxPoint x="260" y="480" as="targetPoint"/>
                        <Array as="points">
                            <mxPoint x="194" y="700"/>
                            <mxPoint x="230" y="700"/>
                            <mxPoint x="230" y="600"/>
                            <mxPoint x="260" y="600"/>
                        </Array>
                    </mxGeometry>
                </mxCell>
                <mxCell id="R2kJRojOLorgG1siDhDO-39" value="" style="html=1;shadow=0;dashed=0;align=center;verticalAlign=middle;shape=mxgraph.arrows2.arrow;dy=0.45;dx=30.5;notch=0;strokeColor=none;fillColor=#FF9933;rotation=90;" parent="R2kJRojOLorgG1siDhDO-1" vertex="1">
                    <mxGeometry x="235" y="730" width="50" height="40" as="geometry"/>
                </mxCell>
                <mxCell id="R2kJRojOLorgG1siDhDO-54" value="" style="ellipse;whiteSpace=wrap;html=1;aspect=fixed;strokeColor=#006EAF;strokeWidth=2;fillColor=#1ba1e2;fontColor=#ffffff;direction=south;" parent="R2kJRojOLorgG1siDhDO-1" vertex="1">
                    <mxGeometry x="360" y="300" width="40" height="40" as="geometry"/>
                </mxCell>
                <mxCell id="R2kJRojOLorgG1siDhDO-56" value="" style="endArrow=none;html=1;strokeColor=#000000;strokeWidth=2;entryX=0;entryY=1;entryDx=0;entryDy=0;exitX=1;exitY=0;exitDx=0;exitDy=0;" parent="R2kJRojOLorgG1siDhDO-1" source="R2kJRojOLorgG1siDhDO-17" target="R2kJRojOLorgG1siDhDO-54" edge="1">
                    <mxGeometry width="50" height="50" relative="1" as="geometry">
                        <mxPoint x="338.6800000000003" y="291" as="sourcePoint"/>
                        <mxPoint x="324.14213562373106" y="315.85786437626894" as="targetPoint"/>
                    </mxGeometry>
                </mxCell>
                <mxCell id="R2kJRojOLorgG1siDhDO-57" value="" style="ellipse;whiteSpace=wrap;html=1;aspect=fixed;strokeColor=#006EAF;strokeWidth=2;fillColor=#1ba1e2;fontColor=#ffffff;direction=south;" parent="R2kJRojOLorgG1siDhDO-1" vertex="1">
                    <mxGeometry x="380" y="580" width="40" height="40" as="geometry"/>
                </mxCell>
                <mxCell id="R2kJRojOLorgG1siDhDO-58" value="" style="ellipse;whiteSpace=wrap;html=1;aspect=fixed;strokeColor=#006EAF;strokeWidth=2;fillColor=#1ba1e2;fontColor=#ffffff;direction=south;" parent="R2kJRojOLorgG1siDhDO-1" vertex="1">
                    <mxGeometry x="440" y="640" width="40" height="40" as="geometry"/>
                </mxCell>
                <mxCell id="R2kJRojOLorgG1siDhDO-59" value="" style="endArrow=none;html=1;strokeColor=#000000;strokeWidth=2;entryX=0;entryY=1;entryDx=0;entryDy=0;exitX=1;exitY=0;exitDx=0;exitDy=0;" parent="R2kJRojOLorgG1siDhDO-1" source="R2kJRojOLorgG1siDhDO-57" target="R2kJRojOLorgG1siDhDO-58" edge="1">
                    <mxGeometry width="50" height="50" relative="1" as="geometry">
                        <mxPoint x="235.85786437626894" y="575.8578643762689" as="sourcePoint"/>
                        <mxPoint x="204.14213562373106" y="544.1421356237311" as="targetPoint"/>
                    </mxGeometry>
                </mxCell>
                <mxCell id="R2kJRojOLorgG1siDhDO-60" value="&lt;font color=&quot;#000000&quot;&gt;replacing&lt;/font&gt;" style="ellipse;whiteSpace=wrap;html=1;aspect=fixed;strokeColor=#006EAF;strokeWidth=2;fillColor=#1ba1e2;fontColor=#ffffff;direction=south;" parent="R2kJRojOLorgG1siDhDO-1" vertex="1">
                    <mxGeometry x="340" y="500" width="40" height="40" as="geometry"/>
                </mxCell>
                <mxCell id="R2kJRojOLorgG1siDhDO-61" value="" style="endArrow=none;html=1;strokeColor=#000000;strokeWidth=2;entryX=0;entryY=0;entryDx=0;entryDy=0;exitX=1;exitY=1;exitDx=0;exitDy=0;" parent="R2kJRojOLorgG1siDhDO-1" source="R2kJRojOLorgG1siDhDO-57" target="R2kJRojOLorgG1siDhDO-65" edge="1">
                    <mxGeometry width="50" height="50" relative="1" as="geometry">
                        <mxPoint x="424.14213562373106" y="604.1421356237311" as="sourcePoint"/>
                        <mxPoint x="455.85786437626894" y="635.8578643762689" as="targetPoint"/>
                    </mxGeometry>
                </mxCell>
                <mxCell id="R2kJRojOLorgG1siDhDO-63" value="" style="endArrow=classic;html=1;curved=1;strokeColor=#97D077;strokeWidth=2;dashed=1;exitX=1;exitY=0;exitDx=0;exitDy=0;edgeStyle=orthogonalEdgeStyle;" parent="R2kJRojOLorgG1siDhDO-1" source="R2kJRojOLorgG1siDhDO-65" target="R2kJRojOLorgG1siDhDO-57" edge="1">
                    <mxGeometry width="50" height="50" relative="1" as="geometry">
                        <mxPoint x="211.31999999999994" y="641.6800000000001" as="sourcePoint"/>
                        <mxPoint x="260" y="580" as="targetPoint"/>
                        <Array as="points">
                            <mxPoint x="354" y="690"/>
                            <mxPoint x="394" y="690"/>
                            <mxPoint x="394" y="670"/>
                            <mxPoint x="400" y="670"/>
                        </Array>
                    </mxGeometry>
                </mxCell>
                <mxCell id="R2kJRojOLorgG1siDhDO-65" value="" style="ellipse;whiteSpace=wrap;html=1;aspect=fixed;strokeColor=#006EAF;strokeWidth=2;fillColor=#1ba1e2;fontColor=#ffffff;direction=south;" parent="R2kJRojOLorgG1siDhDO-1" vertex="1">
                    <mxGeometry x="320" y="640" width="40" height="40" as="geometry"/>
                </mxCell>
                <mxCell id="R2kJRojOLorgG1siDhDO-67" value="" style="endArrow=none;html=1;strokeColor=#000000;strokeWidth=2;entryX=1;entryY=1;entryDx=0;entryDy=0;exitX=0;exitY=1;exitDx=0;exitDy=0;" parent="R2kJRojOLorgG1siDhDO-1" source="R2kJRojOLorgG1siDhDO-57" target="R2kJRojOLorgG1siDhDO-23" edge="1">
                    <mxGeometry width="50" height="50" relative="1" as="geometry">
                        <mxPoint x="144.14213562373106" y="595.8578643762689" as="sourcePoint"/>
                        <mxPoint x="255.85786437626894" y="564.1421356237311" as="targetPoint"/>
                    </mxGeometry>
                </mxCell>
                <mxCell id="R2kJRojOLorgG1siDhDO-68" value="&lt;font color=&quot;#000000&quot;&gt;parent&lt;/font&gt;" style="ellipse;whiteSpace=wrap;html=1;aspect=fixed;strokeColor=#006EAF;strokeWidth=2;fillColor=#1ba1e2;fontColor=#ffffff;" parent="R2kJRojOLorgG1siDhDO-1" vertex="1">
                    <mxGeometry x="240" y="800" width="40" height="40" as="geometry"/>
                </mxCell>
                <mxCell id="R2kJRojOLorgG1siDhDO-69" value="&lt;font color=&quot;#000000&quot;&gt;deleting&lt;/font&gt;" style="ellipse;whiteSpace=wrap;html=1;aspect=fixed;strokeColor=#FFB366;strokeWidth=2;fillColor=#1ba1e2;fontColor=#ffffff;" parent="R2kJRojOLorgG1siDhDO-1" vertex="1">
                    <mxGeometry x="240" y="880" width="40" height="40" as="geometry"/>
                </mxCell>
                <mxCell id="R2kJRojOLorgG1siDhDO-70" value="" style="endArrow=none;html=1;strokeColor=#000000;strokeWidth=2;exitX=0.5;exitY=1;exitDx=0;exitDy=0;entryX=0.5;entryY=0;entryDx=0;entryDy=0;" parent="R2kJRojOLorgG1siDhDO-1" source="R2kJRojOLorgG1siDhDO-68" target="R2kJRojOLorgG1siDhDO-69" edge="1">
                    <mxGeometry width="50" height="50" relative="1" as="geometry">
                        <mxPoint x="185.85786437626894" y="874.1421356237311" as="sourcePoint"/>
                        <mxPoint x="154.14213562373106" y="905.8578643762689" as="targetPoint"/>
                    </mxGeometry>
                </mxCell>
                <mxCell id="R2kJRojOLorgG1siDhDO-71" value="" style="endArrow=none;html=1;strokeColor=#000000;strokeWidth=2;entryX=0;entryY=1;entryDx=0;entryDy=0;exitX=1;exitY=0;exitDx=0;exitDy=0;" parent="R2kJRojOLorgG1siDhDO-1" target="R2kJRojOLorgG1siDhDO-69" edge="1">
                    <mxGeometry width="50" height="50" relative="1" as="geometry">
                        <mxPoint x="134.14213562373106" y="945.8578643762689" as="sourcePoint"/>
                        <mxPoint x="185.85786437626894" y="1014.1421356237311" as="targetPoint"/>
                    </mxGeometry>
                </mxCell>
                <mxCell id="R2kJRojOLorgG1siDhDO-72" value="" style="ellipse;whiteSpace=wrap;html=1;aspect=fixed;strokeColor=#006EAF;strokeWidth=2;fillColor=#1ba1e2;fontColor=#ffffff;direction=south;" parent="R2kJRojOLorgG1siDhDO-1" vertex="1">
                    <mxGeometry x="100" y="940" width="40" height="40" as="geometry"/>
                </mxCell>
                <mxCell id="R2kJRojOLorgG1siDhDO-73" value="" style="ellipse;whiteSpace=wrap;html=1;aspect=fixed;strokeColor=#006EAF;strokeWidth=2;fillColor=#1ba1e2;fontColor=#ffffff;direction=south;" parent="R2kJRojOLorgG1siDhDO-1" vertex="1">
                    <mxGeometry x="40" y="1000" width="40" height="40" as="geometry"/>
                </mxCell>
                <mxCell id="R2kJRojOLorgG1siDhDO-74" value="" style="ellipse;whiteSpace=wrap;html=1;aspect=fixed;strokeColor=#006EAF;strokeWidth=2;fillColor=#1ba1e2;fontColor=#ffffff;direction=south;" parent="R2kJRojOLorgG1siDhDO-1" vertex="1">
                    <mxGeometry x="160" y="1000" width="40" height="40" as="geometry"/>
                </mxCell>
                <mxCell id="R2kJRojOLorgG1siDhDO-75" value="" style="endArrow=none;html=1;strokeColor=#000000;strokeWidth=2;entryX=0;entryY=0;entryDx=0;entryDy=0;exitX=1;exitY=1;exitDx=0;exitDy=0;" parent="R2kJRojOLorgG1siDhDO-1" source="R2kJRojOLorgG1siDhDO-72" target="R2kJRojOLorgG1siDhDO-73" edge="1">
                    <mxGeometry width="50" height="50" relative="1" as="geometry">
                        <mxPoint x="264.14213562373106" y="984.1421356237311" as="sourcePoint"/>
                        <mxPoint x="295.85786437626894" y="1015.8578643762689" as="targetPoint"/>
                    </mxGeometry>
                </mxCell>
                <mxCell id="R2kJRojOLorgG1siDhDO-76" value="" style="endArrow=none;html=1;strokeColor=#000000;strokeWidth=2;entryX=0;entryY=1;entryDx=0;entryDy=0;exitX=1;exitY=0;exitDx=0;exitDy=0;" parent="R2kJRojOLorgG1siDhDO-1" source="R2kJRojOLorgG1siDhDO-72" target="R2kJRojOLorgG1siDhDO-74" edge="1">
                    <mxGeometry width="50" height="50" relative="1" as="geometry">
                        <mxPoint x="274.14213562373106" y="994.1421356237311" as="sourcePoint"/>
                        <mxPoint x="305.85786437626894" y="1025.857864376269" as="targetPoint"/>
                    </mxGeometry>
                </mxCell>
                <mxCell id="R2kJRojOLorgG1siDhDO-77" value="" style="endArrow=classic;html=1;curved=1;strokeColor=#97D077;strokeWidth=2;dashed=1;exitX=1;exitY=0;exitDx=0;exitDy=0;entryX=0.5;entryY=1;entryDx=0;entryDy=0;edgeStyle=orthogonalEdgeStyle;" parent="R2kJRojOLorgG1siDhDO-1" source="R2kJRojOLorgG1siDhDO-74" target="R2kJRojOLorgG1siDhDO-69" edge="1">
                    <mxGeometry width="50" height="50" relative="1" as="geometry">
                        <mxPoint x="211.31999999999994" y="901.6800000000001" as="sourcePoint"/>
                        <mxPoint x="260" y="840" as="targetPoint"/>
                        <Array as="points">
                            <mxPoint x="194" y="1060"/>
                            <mxPoint x="230" y="1060"/>
                            <mxPoint x="230" y="960"/>
                            <mxPoint x="260" y="960"/>
                        </Array>
                    </mxGeometry>
                </mxCell>
                <mxCell id="R2kJRojOLorgG1siDhDO-78" value="" style="ellipse;whiteSpace=wrap;html=1;aspect=fixed;strokeColor=#006EAF;strokeWidth=2;fillColor=#1ba1e2;fontColor=#ffffff;direction=south;" parent="R2kJRojOLorgG1siDhDO-1" vertex="1">
                    <mxGeometry x="380" y="940" width="40" height="40" as="geometry"/>
                </mxCell>
                <mxCell id="R2kJRojOLorgG1siDhDO-79" value="" style="ellipse;whiteSpace=wrap;html=1;aspect=fixed;strokeColor=#006EAF;strokeWidth=2;fillColor=#1ba1e2;fontColor=#ffffff;direction=south;" parent="R2kJRojOLorgG1siDhDO-1" vertex="1">
                    <mxGeometry x="440" y="1000" width="40" height="40" as="geometry"/>
                </mxCell>
                <mxCell id="R2kJRojOLorgG1siDhDO-80" value="" style="endArrow=none;html=1;strokeColor=#000000;strokeWidth=2;entryX=0;entryY=1;entryDx=0;entryDy=0;exitX=1;exitY=0;exitDx=0;exitDy=0;" parent="R2kJRojOLorgG1siDhDO-1" source="R2kJRojOLorgG1siDhDO-78" target="R2kJRojOLorgG1siDhDO-79" edge="1">
                    <mxGeometry width="50" height="50" relative="1" as="geometry">
                        <mxPoint x="235.85786437626894" y="935.8578643762689" as="sourcePoint"/>
                        <mxPoint x="204.14213562373106" y="904.1421356237311" as="targetPoint"/>
                    </mxGeometry>
                </mxCell>
                <mxCell id="R2kJRojOLorgG1siDhDO-81" value="&lt;font color=&quot;#000000&quot;&gt;replacing&lt;/font&gt;" style="ellipse;whiteSpace=wrap;html=1;aspect=fixed;strokeColor=#006EAF;strokeWidth=2;fillColor=#1ba1e2;fontColor=#ffffff;direction=south;" parent="R2kJRojOLorgG1siDhDO-1" vertex="1">
                    <mxGeometry x="320" y="880" width="40" height="40" as="geometry"/>
                </mxCell>
                <mxCell id="R2kJRojOLorgG1siDhDO-82" value="" style="endArrow=none;html=1;strokeColor=#000000;strokeWidth=2;entryX=0;entryY=0;entryDx=0;entryDy=0;exitX=1;exitY=1;exitDx=0;exitDy=0;" parent="R2kJRojOLorgG1siDhDO-1" source="R2kJRojOLorgG1siDhDO-78" target="R2kJRojOLorgG1siDhDO-84" edge="1">
                    <mxGeometry width="50" height="50" relative="1" as="geometry">
                        <mxPoint x="424.14213562373106" y="964.1421356237311" as="sourcePoint"/>
                        <mxPoint x="455.85786437626894" y="995.8578643762689" as="targetPoint"/>
                    </mxGeometry>
                </mxCell>
                <mxCell id="R2kJRojOLorgG1siDhDO-83" value="" style="endArrow=classic;html=1;curved=1;strokeColor=#97D077;strokeWidth=2;dashed=1;exitX=1;exitY=0;exitDx=0;exitDy=0;edgeStyle=orthogonalEdgeStyle;" parent="R2kJRojOLorgG1siDhDO-1" source="R2kJRojOLorgG1siDhDO-84" target="R2kJRojOLorgG1siDhDO-78" edge="1">
                    <mxGeometry width="50" height="50" relative="1" as="geometry">
                        <mxPoint x="211.31999999999994" y="1001.6800000000001" as="sourcePoint"/>
                        <mxPoint x="260" y="940" as="targetPoint"/>
                        <Array as="points">
                            <mxPoint x="354" y="1050"/>
                            <mxPoint x="394" y="1050"/>
                            <mxPoint x="394" y="1030"/>
                            <mxPoint x="400" y="1030"/>
                        </Array>
                    </mxGeometry>
                </mxCell>
                <mxCell id="R2kJRojOLorgG1siDhDO-84" value="" style="ellipse;whiteSpace=wrap;html=1;aspect=fixed;strokeColor=#006EAF;strokeWidth=2;fillColor=#1ba1e2;fontColor=#ffffff;direction=south;" parent="R2kJRojOLorgG1siDhDO-1" vertex="1">
                    <mxGeometry x="320" y="1000" width="40" height="40" as="geometry"/>
                </mxCell>
                <mxCell id="R2kJRojOLorgG1siDhDO-85" value="" style="endArrow=none;html=1;strokeColor=#000000;strokeWidth=2;entryX=1;entryY=0;entryDx=0;entryDy=0;exitX=0;exitY=1;exitDx=0;exitDy=0;" parent="R2kJRojOLorgG1siDhDO-1" source="R2kJRojOLorgG1siDhDO-78" target="R2kJRojOLorgG1siDhDO-81" edge="1">
                    <mxGeometry width="50" height="50" relative="1" as="geometry">
                        <mxPoint x="144.14213562373106" y="955.8578643762689" as="sourcePoint"/>
                        <mxPoint x="255.85786437626894" y="924.1421356237311" as="targetPoint"/>
                    </mxGeometry>
                </mxCell>
                <mxCell id="R2kJRojOLorgG1siDhDO-86" value="" style="html=1;shadow=0;dashed=0;align=center;verticalAlign=middle;shape=mxgraph.arrows2.arrow;dy=0.45;dx=30.5;notch=0;strokeColor=none;fillColor=#FF9933;rotation=90;" parent="R2kJRojOLorgG1siDhDO-1" vertex="1">
                    <mxGeometry x="235" y="1090" width="50" height="40" as="geometry"/>
                </mxCell>
                <mxCell id="R2kJRojOLorgG1siDhDO-87" value="&lt;font color=&quot;#000000&quot;&gt;parent&lt;/font&gt;" style="ellipse;whiteSpace=wrap;html=1;aspect=fixed;strokeColor=#006EAF;strokeWidth=2;fillColor=#1ba1e2;fontColor=#ffffff;" parent="R2kJRojOLorgG1siDhDO-1" vertex="1">
                    <mxGeometry x="240" y="1160" width="40" height="40" as="geometry"/>
                </mxCell>
                <mxCell id="R2kJRojOLorgG1siDhDO-89" value="" style="endArrow=none;html=1;strokeColor=#000000;strokeWidth=2;exitX=0.5;exitY=1;exitDx=0;exitDy=0;entryX=0;entryY=0.5;entryDx=0;entryDy=0;" parent="R2kJRojOLorgG1siDhDO-1" source="R2kJRojOLorgG1siDhDO-87" target="R2kJRojOLorgG1siDhDO-100" edge="1">
                    <mxGeometry width="50" height="50" relative="1" as="geometry">
                        <mxPoint x="185.85786437626894" y="1234.142135623731" as="sourcePoint"/>
                        <mxPoint x="260" y="1240" as="targetPoint"/>
                    </mxGeometry>
                </mxCell>
                <mxCell id="R2kJRojOLorgG1siDhDO-90" value="" style="endArrow=none;html=1;strokeColor=#000000;strokeWidth=2;entryX=1;entryY=1;entryDx=0;entryDy=0;exitX=1;exitY=0;exitDx=0;exitDy=0;" parent="R2kJRojOLorgG1siDhDO-1" target="R2kJRojOLorgG1siDhDO-100" edge="1">
                    <mxGeometry width="50" height="50" relative="1" as="geometry">
                        <mxPoint x="134.14213562373106" y="1305.857864376269" as="sourcePoint"/>
                        <mxPoint x="245.85786437626894" y="1274.142135623731" as="targetPoint"/>
                    </mxGeometry>
                </mxCell>
                <mxCell id="R2kJRojOLorgG1siDhDO-91" value="" style="ellipse;whiteSpace=wrap;html=1;aspect=fixed;strokeColor=#006EAF;strokeWidth=2;fillColor=#1ba1e2;fontColor=#ffffff;direction=south;" parent="R2kJRojOLorgG1siDhDO-1" vertex="1">
                    <mxGeometry x="100" y="1300" width="40" height="40" as="geometry"/>
                </mxCell>
                <mxCell id="R2kJRojOLorgG1siDhDO-92" value="" style="ellipse;whiteSpace=wrap;html=1;aspect=fixed;strokeColor=#006EAF;strokeWidth=2;fillColor=#1ba1e2;fontColor=#ffffff;direction=south;" parent="R2kJRojOLorgG1siDhDO-1" vertex="1">
                    <mxGeometry x="40" y="1360" width="40" height="40" as="geometry"/>
                </mxCell>
                <mxCell id="R2kJRojOLorgG1siDhDO-93" value="" style="ellipse;whiteSpace=wrap;html=1;aspect=fixed;strokeColor=#006EAF;strokeWidth=2;fillColor=#1ba1e2;fontColor=#ffffff;direction=south;" parent="R2kJRojOLorgG1siDhDO-1" vertex="1">
                    <mxGeometry x="160" y="1360" width="40" height="40" as="geometry"/>
                </mxCell>
                <mxCell id="R2kJRojOLorgG1siDhDO-94" value="" style="endArrow=none;html=1;strokeColor=#000000;strokeWidth=2;entryX=0;entryY=0;entryDx=0;entryDy=0;exitX=1;exitY=1;exitDx=0;exitDy=0;" parent="R2kJRojOLorgG1siDhDO-1" source="R2kJRojOLorgG1siDhDO-91" target="R2kJRojOLorgG1siDhDO-92" edge="1">
                    <mxGeometry width="50" height="50" relative="1" as="geometry">
                        <mxPoint x="264.14213562373106" y="1344.142135623731" as="sourcePoint"/>
                        <mxPoint x="295.85786437626894" y="1375.857864376269" as="targetPoint"/>
                    </mxGeometry>
                </mxCell>
                <mxCell id="R2kJRojOLorgG1siDhDO-95" value="" style="endArrow=none;html=1;strokeColor=#000000;strokeWidth=2;entryX=0;entryY=1;entryDx=0;entryDy=0;exitX=1;exitY=0;exitDx=0;exitDy=0;" parent="R2kJRojOLorgG1siDhDO-1" source="R2kJRojOLorgG1siDhDO-91" target="R2kJRojOLorgG1siDhDO-93" edge="1">
                    <mxGeometry width="50" height="50" relative="1" as="geometry">
                        <mxPoint x="274.14213562373106" y="1354.142135623731" as="sourcePoint"/>
                        <mxPoint x="305.85786437626894" y="1385.857864376269" as="targetPoint"/>
                    </mxGeometry>
                </mxCell>
                <mxCell id="R2kJRojOLorgG1siDhDO-96" value="" style="endArrow=classic;html=1;curved=1;strokeColor=#97D077;strokeWidth=2;dashed=1;exitX=1;exitY=0;exitDx=0;exitDy=0;entryX=1;entryY=0.5;entryDx=0;entryDy=0;edgeStyle=orthogonalEdgeStyle;" parent="R2kJRojOLorgG1siDhDO-1" source="R2kJRojOLorgG1siDhDO-93" target="R2kJRojOLorgG1siDhDO-100" edge="1">
                    <mxGeometry width="50" height="50" relative="1" as="geometry">
                        <mxPoint x="211.31999999999994" y="1261.68" as="sourcePoint"/>
                        <mxPoint x="260" y="1280" as="targetPoint"/>
                        <Array as="points">
                            <mxPoint x="194" y="1420"/>
                            <mxPoint x="230" y="1420"/>
                            <mxPoint x="230" y="1320"/>
                            <mxPoint x="260" y="1320"/>
                            <mxPoint x="260" y="1280"/>
                        </Array>
                    </mxGeometry>
                </mxCell>
                <mxCell id="R2kJRojOLorgG1siDhDO-97" value="" style="ellipse;whiteSpace=wrap;html=1;aspect=fixed;strokeColor=#006EAF;strokeWidth=2;fillColor=#1ba1e2;fontColor=#ffffff;direction=south;" parent="R2kJRojOLorgG1siDhDO-1" vertex="1">
                    <mxGeometry x="380" y="1300" width="40" height="40" as="geometry"/>
                </mxCell>
                <mxCell id="R2kJRojOLorgG1siDhDO-98" value="" style="ellipse;whiteSpace=wrap;html=1;aspect=fixed;strokeColor=#006EAF;strokeWidth=2;fillColor=#1ba1e2;fontColor=#ffffff;direction=south;" parent="R2kJRojOLorgG1siDhDO-1" vertex="1">
                    <mxGeometry x="440" y="1360" width="40" height="40" as="geometry"/>
                </mxCell>
                <mxCell id="R2kJRojOLorgG1siDhDO-99" value="" style="endArrow=none;html=1;strokeColor=#000000;strokeWidth=2;entryX=0;entryY=1;entryDx=0;entryDy=0;exitX=1;exitY=0;exitDx=0;exitDy=0;" parent="R2kJRojOLorgG1siDhDO-1" source="R2kJRojOLorgG1siDhDO-97" target="R2kJRojOLorgG1siDhDO-98" edge="1">
                    <mxGeometry width="50" height="50" relative="1" as="geometry">
                        <mxPoint x="235.85786437626894" y="1295.857864376269" as="sourcePoint"/>
                        <mxPoint x="204.14213562373106" y="1264.142135623731" as="targetPoint"/>
                    </mxGeometry>
                </mxCell>
                <mxCell id="R2kJRojOLorgG1siDhDO-100" value="&lt;font color=&quot;#000000&quot;&gt;replacing&lt;/font&gt;" style="ellipse;whiteSpace=wrap;html=1;aspect=fixed;strokeColor=#006EAF;strokeWidth=2;fillColor=#1ba1e2;fontColor=#ffffff;direction=south;" parent="R2kJRojOLorgG1siDhDO-1" vertex="1">
                    <mxGeometry x="240" y="1240" width="40" height="40" as="geometry"/>
                </mxCell>
                <mxCell id="R2kJRojOLorgG1siDhDO-101" value="" style="endArrow=none;html=1;strokeColor=#000000;strokeWidth=2;entryX=0;entryY=0;entryDx=0;entryDy=0;exitX=1;exitY=1;exitDx=0;exitDy=0;" parent="R2kJRojOLorgG1siDhDO-1" source="R2kJRojOLorgG1siDhDO-97" target="R2kJRojOLorgG1siDhDO-103" edge="1">
                    <mxGeometry width="50" height="50" relative="1" as="geometry">
                        <mxPoint x="424.14213562373106" y="1324.142135623731" as="sourcePoint"/>
                        <mxPoint x="455.85786437626894" y="1355.857864376269" as="targetPoint"/>
                    </mxGeometry>
                </mxCell>
                <mxCell id="R2kJRojOLorgG1siDhDO-102" value="" style="endArrow=classic;html=1;curved=1;strokeColor=#97D077;strokeWidth=2;dashed=1;exitX=1;exitY=0;exitDx=0;exitDy=0;edgeStyle=orthogonalEdgeStyle;" parent="R2kJRojOLorgG1siDhDO-1" source="R2kJRojOLorgG1siDhDO-103" target="R2kJRojOLorgG1siDhDO-97" edge="1">
                    <mxGeometry width="50" height="50" relative="1" as="geometry">
                        <mxPoint x="211.31999999999994" y="1361.68" as="sourcePoint"/>
                        <mxPoint x="260" y="1300" as="targetPoint"/>
                        <Array as="points">
                            <mxPoint x="354" y="1410"/>
                            <mxPoint x="394" y="1410"/>
                            <mxPoint x="394" y="1390"/>
                            <mxPoint x="400" y="1390"/>
                        </Array>
                    </mxGeometry>
                </mxCell>
                <mxCell id="R2kJRojOLorgG1siDhDO-103" value="" style="ellipse;whiteSpace=wrap;html=1;aspect=fixed;strokeColor=#006EAF;strokeWidth=2;fillColor=#1ba1e2;fontColor=#ffffff;direction=south;" parent="R2kJRojOLorgG1siDhDO-1" vertex="1">
                    <mxGeometry x="320" y="1360" width="40" height="40" as="geometry"/>
                </mxCell>
                <mxCell id="R2kJRojOLorgG1siDhDO-104" value="" style="endArrow=none;html=1;strokeColor=#000000;strokeWidth=2;entryX=1;entryY=0;entryDx=0;entryDy=0;exitX=0;exitY=1;exitDx=0;exitDy=0;" parent="R2kJRojOLorgG1siDhDO-1" source="R2kJRojOLorgG1siDhDO-97" target="R2kJRojOLorgG1siDhDO-100" edge="1">
                    <mxGeometry width="50" height="50" relative="1" as="geometry">
                        <mxPoint x="144.14213562373106" y="1315.857864376269" as="sourcePoint"/>
                        <mxPoint x="255.85786437626894" y="1284.142135623731" as="targetPoint"/>
                    </mxGeometry>
                </mxCell>
                <mxCell id="4EvICtWRIrPg3ySppMw_-0" value="" style="endArrow=none;html=1;strokeColor=#000000;strokeWidth=2;exitX=1;exitY=1;exitDx=0;exitDy=0;dashed=1;" parent="R2kJRojOLorgG1siDhDO-1" source="R2kJRojOLorgG1siDhDO-54" edge="1">
                    <mxGeometry width="50" height="50" relative="1" as="geometry">
                        <mxPoint x="115.85786437626894" y="224.14213562373106" as="sourcePoint"/>
                        <mxPoint x="340" y="360" as="targetPoint"/>
                    </mxGeometry>
                </mxCell>
                <mxCell id="4EvICtWRIrPg3ySppMw_-1" value="" style="endArrow=none;html=1;strokeColor=#000000;strokeWidth=2;exitX=1;exitY=1;exitDx=0;exitDy=0;dashed=1;" parent="R2kJRojOLorgG1siDhDO-1" source="R2kJRojOLorgG1siDhDO-65" edge="1">
                    <mxGeometry width="50" height="50" relative="1" as="geometry">
                        <mxPoint x="375.85786437626894" y="344.14213562373106" as="sourcePoint"/>
                        <mxPoint x="300" y="700" as="targetPoint"/>
                    </mxGeometry>
                </mxCell>
                <mxCell id="4EvICtWRIrPg3ySppMw_-2" value="" style="endArrow=none;html=1;strokeColor=#000000;strokeWidth=2;exitX=1;exitY=1;exitDx=0;exitDy=0;dashed=1;" parent="R2kJRojOLorgG1siDhDO-1" source="R2kJRojOLorgG1siDhDO-84" edge="1">
                    <mxGeometry width="50" height="50" relative="1" as="geometry">
                        <mxPoint x="335.85786437626894" y="684.1421356237311" as="sourcePoint"/>
                        <mxPoint x="300" y="1060" as="targetPoint"/>
                    </mxGeometry>
                </mxCell>
                <mxCell id="4EvICtWRIrPg3ySppMw_-3" value="" style="endArrow=none;html=1;strokeColor=#000000;strokeWidth=2;exitX=1;exitY=1;exitDx=0;exitDy=0;dashed=1;" parent="R2kJRojOLorgG1siDhDO-1" source="R2kJRojOLorgG1siDhDO-103" edge="1">
                    <mxGeometry width="50" height="50" relative="1" as="geometry">
                        <mxPoint x="345.85786437626894" y="694.1421356237311" as="sourcePoint"/>
                        <mxPoint x="300" y="1420" as="targetPoint"/>
                    </mxGeometry>
                </mxCell>
                <mxCell id="W0X5Az_grECqDU7kF_sk-0" value="" style="endArrow=classic;html=1;dashed=1;strokeColor=#97D077;strokeWidth=2;" edge="1" parent="R2kJRojOLorgG1siDhDO-1">
                    <mxGeometry width="50" height="50" relative="1" as="geometry">
                        <mxPoint x="330" y="9.5" as="sourcePoint"/>
                        <mxPoint x="380" y="9.5" as="targetPoint"/>
                    </mxGeometry>
                </mxCell>
                <mxCell id="W0X5Az_grECqDU7kF_sk-1" value="&lt;font color=&quot;#000000&quot; style=&quot;font-size: 14px&quot;&gt;&lt;b&gt;right thread&lt;/b&gt;&lt;/font&gt;" style="text;html=1;strokeColor=none;fillColor=none;align=center;verticalAlign=middle;whiteSpace=wrap;rounded=0;" vertex="1" parent="R2kJRojOLorgG1siDhDO-1">
                    <mxGeometry x="380" width="90" height="20" as="geometry"/>
                </mxCell>
            </root>
        </mxGraphModel>
    </diagram>
</mxfile>